<?xml version="1.0" encoding="UTF-8" standalone="no"?>
<!-- Created with Inkscape (http://www.inkscape.org/) -->

<svg
   xmlns:dc="http://purl.org/dc/elements/1.1/"
   xmlns:cc="http://creativecommons.org/ns#"
   xmlns:rdf="http://www.w3.org/1999/02/22-rdf-syntax-ns#"
   xmlns:svg="http://www.w3.org/2000/svg"
   xmlns="http://www.w3.org/2000/svg"
   xmlns:xlink="http://www.w3.org/1999/xlink"
   xmlns:sodipodi="http://sodipodi.sourceforge.net/DTD/sodipodi-0.dtd"
   xmlns:inkscape="http://www.inkscape.org/namespaces/inkscape"
   width="1239.3334"
   height="298.66666"
   id="svg9598"
   version="1.1"
   inkscape:version="0.92.1 r"
   sodipodi:docname="logo-chinar-path.svg">
  <defs
     id="defs9600">
    <linearGradient
       id="linearGradient6736-8-2">
      <stop
         style="stop-color:#c2ff78;stop-opacity:1;"
         offset="0"
         id="stop6738-5-3" />
      <stop
         id="stop6748-8-7"
         offset="0.5"
         style="stop-color:#7bff00;stop-opacity:1;" />
      <stop
         style="stop-color:#00c800;stop-opacity:1;"
         offset="1"
         id="stop6740-3-8" />
    </linearGradient>
    <clipPath
       id="clip2-9-5">
      <path
         inkscape:connector-curvature="0"
         d="M 59.039063,59.039063 H 474.75781 V 431.55859 H 59.039063 Z m 0,0"
         id="path7718-4-8" />
    </clipPath>
    <linearGradient
       id="linearGradient9624">
      <stop
         style="stop-color:#c2ff78;stop-opacity:1;"
         offset="0"
         id="stop9626" />
      <stop
         id="stop9628"
         offset="0.5"
         style="stop-color:#7bff00;stop-opacity:1;" />
      <stop
         style="stop-color:#00c800;stop-opacity:1;"
         offset="1"
         id="stop9630" />
    </linearGradient>
    <linearGradient
       id="linearGradient9633">
      <stop
         style="stop-color:#c2ff78;stop-opacity:1;"
         offset="0"
         id="stop9635" />
      <stop
         id="stop9637"
         offset="0.5"
         style="stop-color:#7bff00;stop-opacity:1;" />
      <stop
         style="stop-color:#00c800;stop-opacity:1;"
         offset="1"
         id="stop9639" />
    </linearGradient>
    <linearGradient
       id="linearGradient9642">
      <stop
         style="stop-color:#c2ff78;stop-opacity:1;"
         offset="0"
         id="stop9644" />
      <stop
         id="stop9646"
         offset="0.5"
         style="stop-color:#7bff00;stop-opacity:1;" />
      <stop
         style="stop-color:#00c800;stop-opacity:1;"
         offset="1"
         id="stop9648" />
    </linearGradient>
    <linearGradient
       id="linearGradient9651">
      <stop
         style="stop-color:#c2ff78;stop-opacity:1;"
         offset="0"
         id="stop9653" />
      <stop
         id="stop9655"
         offset="0.5"
         style="stop-color:#7bff00;stop-opacity:1;" />
      <stop
         style="stop-color:#00c800;stop-opacity:1;"
         offset="1"
         id="stop9657" />
    </linearGradient>
    <linearGradient
       id="linearGradient9660">
      <stop
         style="stop-color:#c2ff78;stop-opacity:1;"
         offset="0"
         id="stop9662" />
      <stop
         id="stop9664"
         offset="0.5"
         style="stop-color:#7bff00;stop-opacity:1;" />
      <stop
         style="stop-color:#00c800;stop-opacity:1;"
         offset="1"
         id="stop9666" />
    </linearGradient>
    <linearGradient
       id="linearGradient9669">
      <stop
         style="stop-color:#c2ff78;stop-opacity:1;"
         offset="0"
         id="stop9671" />
      <stop
         id="stop9673"
         offset="0.5"
         style="stop-color:#7bff00;stop-opacity:1;" />
      <stop
         style="stop-color:#00c800;stop-opacity:1;"
         offset="1"
         id="stop9675" />
    </linearGradient>
    <linearGradient
       id="linearGradient9678">
      <stop
         style="stop-color:#c2ff78;stop-opacity:1;"
         offset="0"
         id="stop9680" />
      <stop
         id="stop9682"
         offset="0.5"
         style="stop-color:#7bff00;stop-opacity:1;" />
      <stop
         style="stop-color:#00c800;stop-opacity:1;"
         offset="1"
         id="stop9684" />
    </linearGradient>
    <linearGradient
       id="linearGradient9687">
      <stop
         style="stop-color:#c2ff78;stop-opacity:1;"
         offset="0"
         id="stop9689" />
      <stop
         id="stop9691"
         offset="0.5"
         style="stop-color:#7bff00;stop-opacity:1;" />
      <stop
         style="stop-color:#00c800;stop-opacity:1;"
         offset="1"
         id="stop9693" />
    </linearGradient>
    <linearGradient
       id="linearGradient9696">
      <stop
         style="stop-color:#c2ff78;stop-opacity:1;"
         offset="0"
         id="stop9698" />
      <stop
         id="stop9700"
         offset="0.5"
         style="stop-color:#7bff00;stop-opacity:1;" />
      <stop
         style="stop-color:#00c800;stop-opacity:1;"
         offset="1"
         id="stop9702" />
    </linearGradient>
    <linearGradient
       id="linearGradient9705">
      <stop
         style="stop-color:#c2ff78;stop-opacity:1;"
         offset="0"
         id="stop9707" />
      <stop
         id="stop9709"
         offset="0.5"
         style="stop-color:#7bff00;stop-opacity:1;" />
      <stop
         style="stop-color:#00c800;stop-opacity:1;"
         offset="1"
         id="stop9711" />
    </linearGradient>
    <linearGradient
       id="linearGradient9714">
      <stop
         style="stop-color:#c2ff78;stop-opacity:1;"
         offset="0"
         id="stop9716" />
      <stop
         id="stop9718"
         offset="0.5"
         style="stop-color:#7bff00;stop-opacity:1;" />
      <stop
         style="stop-color:#00c800;stop-opacity:1;"
         offset="1"
         id="stop9720" />
    </linearGradient>
    <linearGradient
       id="linearGradient9723">
      <stop
         style="stop-color:#c2ff78;stop-opacity:1;"
         offset="0"
         id="stop9725" />
      <stop
         id="stop9727"
         offset="0.5"
         style="stop-color:#7bff00;stop-opacity:1;" />
      <stop
         style="stop-color:#00c800;stop-opacity:1;"
         offset="1"
         id="stop9729" />
    </linearGradient>
    <linearGradient
       id="linearGradient9732">
      <stop
         style="stop-color:#c2ff78;stop-opacity:1;"
         offset="0"
         id="stop9734" />
      <stop
         id="stop9736"
         offset="0.5"
         style="stop-color:#7bff00;stop-opacity:1;" />
      <stop
         style="stop-color:#00c800;stop-opacity:1;"
         offset="1"
         id="stop9738" />
    </linearGradient>
    <linearGradient
       id="linearGradient9741">
      <stop
         style="stop-color:#c2ff78;stop-opacity:1;"
         offset="0"
         id="stop9743" />
      <stop
         id="stop9745"
         offset="0.5"
         style="stop-color:#7bff00;stop-opacity:1;" />
      <stop
         style="stop-color:#00c800;stop-opacity:1;"
         offset="1"
         id="stop9747" />
    </linearGradient>
    <linearGradient
       id="linearGradient9750">
      <stop
         style="stop-color:#c2ff78;stop-opacity:1;"
         offset="0"
         id="stop9752" />
      <stop
         id="stop9754"
         offset="0.5"
         style="stop-color:#7bff00;stop-opacity:1;" />
      <stop
         style="stop-color:#00c800;stop-opacity:1;"
         offset="1"
         id="stop9756" />
    </linearGradient>
    <linearGradient
       id="linearGradient9759">
      <stop
         style="stop-color:#c2ff78;stop-opacity:1;"
         offset="0"
         id="stop9761" />
      <stop
         id="stop9763"
         offset="0.5"
         style="stop-color:#7bff00;stop-opacity:1;" />
      <stop
         style="stop-color:#00c800;stop-opacity:1;"
         offset="1"
         id="stop9765" />
    </linearGradient>
    <linearGradient
       id="linearGradient9768">
      <stop
         style="stop-color:#c2ff78;stop-opacity:1;"
         offset="0"
         id="stop9770" />
      <stop
         id="stop9772"
         offset="0.5"
         style="stop-color:#7bff00;stop-opacity:1;" />
      <stop
         style="stop-color:#00c800;stop-opacity:1;"
         offset="1"
         id="stop9774" />
    </linearGradient>
    <linearGradient
       id="linearGradient9777">
      <stop
         style="stop-color:#c2ff78;stop-opacity:1;"
         offset="0"
         id="stop9779" />
      <stop
         id="stop9781"
         offset="0.5"
         style="stop-color:#7bff00;stop-opacity:1;" />
      <stop
         style="stop-color:#00c800;stop-opacity:1;"
         offset="1"
         id="stop9783" />
    </linearGradient>
    <linearGradient
       id="linearGradient9786">
      <stop
         style="stop-color:#c2ff78;stop-opacity:1;"
         offset="0"
         id="stop9788" />
      <stop
         id="stop9790"
         offset="0.5"
         style="stop-color:#7bff00;stop-opacity:1;" />
      <stop
         style="stop-color:#00c800;stop-opacity:1;"
         offset="1"
         id="stop9792" />
    </linearGradient>
    <linearGradient
       id="linearGradient9795">
      <stop
         style="stop-color:#c2ff78;stop-opacity:1;"
         offset="0"
         id="stop9797" />
      <stop
         id="stop9799"
         offset="0.5"
         style="stop-color:#7bff00;stop-opacity:1;" />
      <stop
         style="stop-color:#00c800;stop-opacity:1;"
         offset="1"
         id="stop9801" />
    </linearGradient>
    <linearGradient
       id="linearGradient9804">
      <stop
         style="stop-color:#c2ff78;stop-opacity:1;"
         offset="0"
         id="stop9806" />
      <stop
         id="stop9808"
         offset="0.5"
         style="stop-color:#7bff00;stop-opacity:1;" />
      <stop
         style="stop-color:#00c800;stop-opacity:1;"
         offset="1"
         id="stop9810" />
    </linearGradient>
    <linearGradient
       id="linearGradient9813">
      <stop
         style="stop-color:#c2ff78;stop-opacity:1;"
         offset="0"
         id="stop9815" />
      <stop
         id="stop9817"
         offset="0.5"
         style="stop-color:#7bff00;stop-opacity:1;" />
      <stop
         style="stop-color:#00c800;stop-opacity:1;"
         offset="1"
         id="stop9819" />
    </linearGradient>
    <linearGradient
       id="linearGradient9822">
      <stop
         style="stop-color:#c2ff78;stop-opacity:1;"
         offset="0"
         id="stop9824" />
      <stop
         id="stop9826"
         offset="0.5"
         style="stop-color:#7bff00;stop-opacity:1;" />
      <stop
         style="stop-color:#00c800;stop-opacity:1;"
         offset="1"
         id="stop9828" />
    </linearGradient>
    <linearGradient
       id="linearGradient9831">
      <stop
         style="stop-color:#c2ff78;stop-opacity:1;"
         offset="0"
         id="stop9833" />
      <stop
         id="stop9835"
         offset="0.5"
         style="stop-color:#7bff00;stop-opacity:1;" />
      <stop
         style="stop-color:#00c800;stop-opacity:1;"
         offset="1"
         id="stop9837" />
    </linearGradient>
    <linearGradient
       id="linearGradient9840">
      <stop
         style="stop-color:#c2ff78;stop-opacity:1;"
         offset="0"
         id="stop9842" />
      <stop
         id="stop9844"
         offset="0.5"
         style="stop-color:#7bff00;stop-opacity:1;" />
      <stop
         style="stop-color:#00c800;stop-opacity:1;"
         offset="1"
         id="stop9846" />
    </linearGradient>
    <linearGradient
       id="linearGradient9849">
      <stop
         style="stop-color:#c2ff78;stop-opacity:1;"
         offset="0"
         id="stop9851" />
      <stop
         id="stop9853"
         offset="0.5"
         style="stop-color:#7bff00;stop-opacity:1;" />
      <stop
         style="stop-color:#00c800;stop-opacity:1;"
         offset="1"
         id="stop9855" />
    </linearGradient>
    <linearGradient
       id="linearGradient9858">
      <stop
         style="stop-color:#c2ff78;stop-opacity:1;"
         offset="0"
         id="stop9860" />
      <stop
         id="stop9862"
         offset="0.5"
         style="stop-color:#7bff00;stop-opacity:1;" />
      <stop
         style="stop-color:#00c800;stop-opacity:1;"
         offset="1"
         id="stop9864" />
    </linearGradient>
    <linearGradient
       id="linearGradient9867">
      <stop
         style="stop-color:#c2ff78;stop-opacity:1;"
         offset="0"
         id="stop9869" />
      <stop
         id="stop9871"
         offset="0.5"
         style="stop-color:#7bff00;stop-opacity:1;" />
      <stop
         style="stop-color:#00c800;stop-opacity:1;"
         offset="1"
         id="stop9873" />
    </linearGradient>
    <linearGradient
       id="linearGradient9876">
      <stop
         style="stop-color:#c2ff78;stop-opacity:1;"
         offset="0"
         id="stop9878" />
      <stop
         id="stop9880"
         offset="0.5"
         style="stop-color:#7bff00;stop-opacity:1;" />
      <stop
         style="stop-color:#00c800;stop-opacity:1;"
         offset="1"
         id="stop9882" />
    </linearGradient>
    <linearGradient
       id="linearGradient9885">
      <stop
         style="stop-color:#c2ff78;stop-opacity:1;"
         offset="0"
         id="stop9887" />
      <stop
         id="stop9889"
         offset="0.5"
         style="stop-color:#7bff00;stop-opacity:1;" />
      <stop
         style="stop-color:#00c800;stop-opacity:1;"
         offset="1"
         id="stop9891" />
    </linearGradient>
    <linearGradient
       id="linearGradient9894">
      <stop
         style="stop-color:#c2ff78;stop-opacity:1;"
         offset="0"
         id="stop9896" />
      <stop
         id="stop9898"
         offset="0.5"
         style="stop-color:#7bff00;stop-opacity:1;" />
      <stop
         style="stop-color:#00c800;stop-opacity:1;"
         offset="1"
         id="stop9900" />
    </linearGradient>
    <linearGradient
       id="linearGradient9903">
      <stop
         style="stop-color:#c2ff78;stop-opacity:1;"
         offset="0"
         id="stop9905" />
      <stop
         id="stop9907"
         offset="0.5"
         style="stop-color:#7bff00;stop-opacity:1;" />
      <stop
         style="stop-color:#00c800;stop-opacity:1;"
         offset="1"
         id="stop9909" />
    </linearGradient>
    <linearGradient
       id="linearGradient9912">
      <stop
         style="stop-color:#c2ff78;stop-opacity:1;"
         offset="0"
         id="stop9914" />
      <stop
         id="stop9916"
         offset="0.5"
         style="stop-color:#7bff00;stop-opacity:1;" />
      <stop
         style="stop-color:#00c800;stop-opacity:1;"
         offset="1"
         id="stop9918" />
    </linearGradient>
    <linearGradient
       id="linearGradient9921">
      <stop
         style="stop-color:#c2ff78;stop-opacity:1;"
         offset="0"
         id="stop9923" />
      <stop
         id="stop9925"
         offset="0.5"
         style="stop-color:#7bff00;stop-opacity:1;" />
      <stop
         style="stop-color:#00c800;stop-opacity:1;"
         offset="1"
         id="stop9927" />
    </linearGradient>
    <linearGradient
       id="linearGradient9930">
      <stop
         style="stop-color:#c2ff78;stop-opacity:1;"
         offset="0"
         id="stop9932" />
      <stop
         id="stop9934"
         offset="0.5"
         style="stop-color:#7bff00;stop-opacity:1;" />
      <stop
         style="stop-color:#00c800;stop-opacity:1;"
         offset="1"
         id="stop9936" />
    </linearGradient>
    <linearGradient
       id="linearGradient9939">
      <stop
         style="stop-color:#c2ff78;stop-opacity:1;"
         offset="0"
         id="stop9941" />
      <stop
         id="stop9943"
         offset="0.5"
         style="stop-color:#7bff00;stop-opacity:1;" />
      <stop
         style="stop-color:#00c800;stop-opacity:1;"
         offset="1"
         id="stop9945" />
    </linearGradient>
    <linearGradient
       id="linearGradient9948">
      <stop
         style="stop-color:#c2ff78;stop-opacity:1;"
         offset="0"
         id="stop9950" />
      <stop
         id="stop9952"
         offset="0.5"
         style="stop-color:#7bff00;stop-opacity:1;" />
      <stop
         style="stop-color:#00c800;stop-opacity:1;"
         offset="1"
         id="stop9954" />
    </linearGradient>
    <linearGradient
       id="linearGradient9957">
      <stop
         style="stop-color:#c2ff78;stop-opacity:1;"
         offset="0"
         id="stop9959" />
      <stop
         id="stop9961"
         offset="0.5"
         style="stop-color:#7bff00;stop-opacity:1;" />
      <stop
         style="stop-color:#00c800;stop-opacity:1;"
         offset="1"
         id="stop9963" />
    </linearGradient>
    <linearGradient
       id="linearGradient9966">
      <stop
         style="stop-color:#c2ff78;stop-opacity:1;"
         offset="0"
         id="stop9968" />
      <stop
         id="stop9970"
         offset="0.5"
         style="stop-color:#7bff00;stop-opacity:1;" />
      <stop
         style="stop-color:#00c800;stop-opacity:1;"
         offset="1"
         id="stop9972" />
    </linearGradient>
    <linearGradient
       id="linearGradient9975">
      <stop
         style="stop-color:#c2ff78;stop-opacity:1;"
         offset="0"
         id="stop9977" />
      <stop
         id="stop9979"
         offset="0.5"
         style="stop-color:#7bff00;stop-opacity:1;" />
      <stop
         style="stop-color:#00c800;stop-opacity:1;"
         offset="1"
         id="stop9981" />
    </linearGradient>
    <linearGradient
       id="linearGradient9984">
      <stop
         style="stop-color:#c2ff78;stop-opacity:1;"
         offset="0"
         id="stop9986" />
      <stop
         id="stop9988"
         offset="0.5"
         style="stop-color:#7bff00;stop-opacity:1;" />
      <stop
         style="stop-color:#00c800;stop-opacity:1;"
         offset="1"
         id="stop9990" />
    </linearGradient>
    <radialGradient
       inkscape:collect="always"
       xlink:href="#linearGradient5317-2-2-8-6-5-8"
       id="radialGradient9460"
       gradientUnits="userSpaceOnUse"
       gradientTransform="matrix(0.26910791,0,0,0.1807019,-727.95065,-594.43121)"
       cx="36.219742"
       cy="388.79074"
       fx="36.219742"
       fy="388.79074"
       r="320" />
    <linearGradient
       id="linearGradient5317-2-2-8-6-5-8">
      <stop
         style="stop-color:#000000;stop-opacity:1;"
         offset="0"
         id="stop5319-3-7-6-6-4-6" />
      <stop
         id="stop5325-2-7-5-1-0-7"
         offset="0.67000002"
         style="stop-color:#5a5a5a;stop-opacity:1;" />
      <stop
         style="stop-color:#bebebe;stop-opacity:1;"
         offset="0.80000001"
         id="stop5327-2-9-0-8-3-0" />
      <stop
         id="stop5329-1-3-9-4-4-8"
         offset="0.85000002"
         style="stop-color:#b4b4b4;stop-opacity:1;" />
      <stop
         style="stop-color:#969696;stop-opacity:1;"
         offset="0.89999998"
         id="stop5333-6-1-0-9-1-1" />
      <stop
         style="stop-color:#787878;stop-opacity:1;"
         offset="1"
         id="stop5321-8-9-0-6-2-8" />
    </linearGradient>
    <linearGradient
       id="linearGradient5211-5-2-6-1-7-9-0">
      <stop
         style="stop-color:#325aff;stop-opacity:1;"
         offset="0"
         id="stop5235-51-7-5-3-8-82-3" />
      <stop
         style="stop-color:#b4deee;stop-opacity:1;"
         offset="1"
         id="stop5215-7-6-0-8-8-2-6" />
    </linearGradient>
    <linearGradient
       inkscape:collect="always"
       xlink:href="#linearGradient5211-5-2-6-1-7-9-0"
       id="linearGradient10004"
       gradientUnits="userSpaceOnUse"
       gradientTransform="matrix(1.8112653,0,0,1.8112653,1910.3333,2554.2257)"
       x1="353.76395"
       y1="601.97852"
       x2="353.76395"
       y2="247.32887" />
    <linearGradient
       id="linearGradient10006">
      <stop
         style="stop-color:#325aff;stop-opacity:1;"
         offset="0"
         id="stop10008" />
      <stop
         style="stop-color:#b4deee;stop-opacity:1;"
         offset="1"
         id="stop10010" />
    </linearGradient>
    <linearGradient
       inkscape:collect="always"
       xlink:href="#linearGradient6736-8-2"
       id="linearGradient4342"
       gradientUnits="userSpaceOnUse"
       x1="-334.33841"
       y1="76.653877"
       x2="-336.00586"
       y2="409.33115"
       gradientTransform="matrix(0.82714669,0,0,0.82714669,-412.95609,-635.07285)" />
    <linearGradient
       inkscape:collect="always"
       xlink:href="#linearGradient6736-8-2"
       id="linearGradient4344"
       gradientUnits="userSpaceOnUse"
       x1="-334.33841"
       y1="76.653877"
       x2="-336.00586"
       y2="409.33115"
       gradientTransform="matrix(0.82714669,0,0,0.82714669,-412.95609,-635.07285)" />
    <linearGradient
       inkscape:collect="always"
       xlink:href="#linearGradient6736-8-2"
       id="linearGradient4346"
       gradientUnits="userSpaceOnUse"
       x1="-334.33841"
       y1="76.653877"
       x2="-336.00586"
       y2="409.33115"
       gradientTransform="matrix(0.82714669,0,0,0.82714669,-412.95609,-635.07285)" />
    <linearGradient
       inkscape:collect="always"
       xlink:href="#linearGradient5211-5-2-6-1-7-9-0"
       id="linearGradient4712"
       gradientUnits="userSpaceOnUse"
       gradientTransform="matrix(0.28803792,0,0,0.27168017,-798.41141,-621.13291)"
       x1="353.76395"
       y1="601.97852"
       x2="353.76395"
       y2="247.32887" />
  </defs>
  <sodipodi:namedview
     id="base"
     pagecolor="#ffffff"
     bordercolor="#666666"
     borderopacity="1.0"
     inkscape:pageopacity="0.0"
     inkscape:pageshadow="2"
     inkscape:zoom="0.69999999"
     inkscape:cx="361.38936"
     inkscape:cy="177.57794"
     inkscape:document-units="px"
     inkscape:current-layer="layer1"
     showgrid="false"
     fit-margin-top="0"
     fit-margin-left="0"
     fit-margin-right="0"
     fit-margin-bottom="0"
     inkscape:window-width="1920"
     inkscape:window-height="1019"
     inkscape:window-x="0"
     inkscape:window-y="28"
     inkscape:window-maximized="1" />
  <metadata
     id="metadata9603">
    <rdf:RDF>
      <cc:Work
         rdf:about="">
        <dc:format>image/svg+xml</dc:format>
        <dc:type
           rdf:resource="http://purl.org/dc/dcmitype/StillImage" />
        <dc:title />
      </cc:Work>
    </rdf:RDF>
  </metadata>
  <g
     inkscape:label="Layer 1"
     inkscape:groupmode="layer"
     id="layer1"
     transform="translate(938.12639,613.65438)">
    <path
       style="fill:url(#linearGradient4342);fill-opacity:1;stroke-width:0.03143157;stroke-miterlimit:10;stroke-dasharray:none"
       d="m -674.87784,-340.71504 c -0.81323,-0.19989 -1.35768,-0.68301 -1.14944,-1.01996 0.0954,-0.1543 -0.0171,-0.5048 -0.24989,-0.77891 -0.46747,-0.55039 -1.30167,-3.78672 -1.15641,-4.48637 0.0506,-0.24371 0.36095,-0.98835 0.68966,-1.65474 l 0.59763,-1.21161 -0.76896,-0.76897 c -0.42294,-0.42294 -0.7743,-0.60884 -0.7808,-0.41314 -0.007,0.1957 -0.23324,-0.043 -0.50387,-0.5304 l -0.49204,-0.88622 -0.16221,0.88622 c -0.1319,0.72064 -0.32754,0.90428 -1.04703,0.98282 -0.48666,0.0531 -1.01112,0.21929 -1.16546,0.36927 -0.37788,0.36714 -0.83469,0.34795 -0.60396,-0.0254 0.27327,-0.44216 -0.13023,-1.47441 -0.57633,-1.47441 -0.21294,0 -0.59694,-0.29909 -0.8533,-0.66467 -0.38952,-0.55541 -0.51363,-0.59414 -0.75507,-0.23566 -0.15891,0.23596 -0.22339,0.53505 -0.14329,0.66467 0.24167,0.39103 -0.19764,0.26485 -0.64884,-0.18635 -0.23211,-0.23211 -0.42202,-0.56444 -0.42202,-0.73852 0,-0.17408 -0.3139,-0.31651 -0.69755,-0.31651 -0.58477,0 -0.67473,0.11941 -0.55638,0.73852 0.0865,0.45256 0.005,0.73852 -0.20977,0.73852 -0.19302,0 -0.55036,0.19941 -0.79407,0.44312 -0.60136,0.60137 -1.53008,0.55677 -2.89481,-0.139 -0.93401,-0.47618 -1.36198,-0.53233 -2.35189,-0.30854 -1.17162,0.26487 -1.25238,0.23287 -2.53945,-1.0063 -0.73113,-0.70392 -1.68173,-1.36191 -2.11242,-1.46219 -0.66881,-0.15571 -0.87468,-0.48389 -1.41077,-2.24885 l -0.62768,-2.06652 0.60008,-1.17624 0.60007,-1.17625 -0.81406,-0.41219 c -0.44774,-0.22669 -1.67813,-0.48157 -2.73423,-0.5664 -1.57592,-0.12658 -2.35147,-0.39844 -4.32602,-1.51644 -1.32322,-0.74922 -2.51823,-1.36221 -2.65558,-1.36221 -0.84749,0 -2.75884,1.10926 -2.90333,1.68496 -0.0905,0.36051 -0.7947,1.13666 -1.56494,1.7248 -1.19152,0.9098 -1.57672,1.05062 -2.58207,0.94395 -0.99408,-0.10548 -1.28251,-0.004 -1.81706,0.63911 -0.61845,0.74409 -0.65128,0.75013 -1.23015,0.22625 -0.32712,-0.29604 -0.83879,-0.50753 -1.13705,-0.46999 -0.29827,0.0375 -0.78287,-0.0359 -1.07691,-0.16321 -0.3823,-0.16553 -0.76405,-0.0116 -1.34002,0.54017 -1.30188,1.24727 -2.4533,1.3132 -3.9328,0.22516 l -1.2529,-0.92139 -0.90098,0.86877 c -1.14169,1.10088 -2.19355,1.49583 -3.98385,1.49583 h -1.41966 l -0.19416,1.71615 c -0.15259,1.34866 -0.0734,1.99704 0.3696,3.02795 0.31007,0.72149 0.64658,2.07007 0.74781,2.99684 l 0.18404,1.68503 -0.9809,0.18402 c -0.53951,0.10121 -1.42543,0.14055 -1.96871,0.0874 -0.9092,-0.0889 -1.03118,-0.22586 -1.53305,-1.72135 -0.29989,-0.89361 -0.61138,-1.80323 -0.69219,-2.02137 -0.11289,-0.30471 -0.43757,-0.2273 -1.4012,0.33412 -3.27975,1.91079 -6.13786,0.92952 -6.05614,-2.07922 0.0144,-0.52804 -0.0377,-1.02386 -0.11565,-1.10181 -0.0779,-0.0779 -1.3086,-0.23144 -2.73476,-0.34106 -2.58916,-0.19902 -2.5928,-0.20045 -2.4593,-0.96605 0.27737,-1.5906 0.89329,-3.74889 1.28556,-4.50493 0.22377,-0.43125 0.40684,-1.12916 0.40684,-1.5509 0,-0.60792 -0.14383,-0.7668 -0.6942,-0.7668 -0.86265,0 -3.14611,-1.61617 -3.14611,-2.22674 0,-0.24782 -0.26785,-1.24566 -0.59521,-2.21742 -0.54419,-1.61542 -0.55603,-1.82664 -0.13797,-2.46467 0.4313,-0.65825 0.41899,-0.70806 -0.21718,-0.87848 -1.23457,-0.33075 -4.67749,-0.19597 -5.48948,0.21489 -0.43873,0.222 -1.29753,0.49413 -1.90842,0.60476 l -1.11071,0.20112 0.63986,-1.31704 c 0.6117,-1.25904 0.61833,-1.36242 0.15064,-2.348 -0.62968,-1.32695 -0.61609,-1.6548 0.10017,-2.41723 0.32418,-0.34506 0.74273,-1.4171 0.93015,-2.38231 0.29368,-1.51253 0.5285,-1.92651 1.70002,-2.99718 0.7476,-0.68324 1.52203,-1.24821 1.72095,-1.25549 0.19893,-0.008 0.5679,-0.41204 0.81996,-0.89946 0.25207,-0.48743 0.65427,-0.88623 0.89382,-0.88623 0.31995,0 0.43553,-0.35668 0.43553,-1.34402 0,-0.7392 0.22066,-1.76944 0.49035,-2.28942 0.44365,-0.85538 0.4555,-1.39532 0.12438,-5.6698 -0.20129,-2.59841 -0.50237,-4.88874 -0.66908,-5.0896 -0.21392,-0.25777 -0.46482,-0.27867 -0.85275,-0.071 -0.61383,0.32851 -0.82031,0.0215 -2.01646,-2.99798 -0.48503,-1.22442 -1.07954,-2.02262 -2.27542,-3.05506 -0.95272,-0.82254 -1.79567,-1.32974 -2.0486,-1.23269 -0.46167,0.17716 -1.7786,2.79669 -2.03519,4.04826 -0.0908,0.44278 -0.48147,0.90996 -0.93307,1.11571 -0.69017,0.31447 -0.98938,0.23516 -2.6801,-0.71035 -1.04677,-0.58538 -2.83845,-1.38242 -3.98153,-1.77121 l -2.07831,-0.70689 -2.26464,1.13335 c -1.24555,0.62334 -3.79338,1.83729 -5.66184,2.69766 -2.90493,1.33762 -3.62655,1.81528 -4.97977,3.29621 -0.8704,0.95254 -2.14235,2.11706 -2.82657,2.58782 -1.21536,0.83618 -1.34268,0.85767 -5.52247,0.93233 -2.35313,0.042 -4.43777,-0.0221 -4.63252,-0.14241 -0.19473,-0.12035 -0.35407,-0.79341 -0.35407,-1.49567 0,-1.09596 -0.13735,-1.38161 -0.96957,-2.01638 -0.53327,-0.40674 -1.22915,-0.78952 -1.54641,-0.85061 -0.40316,-0.0777 -0.62964,-0.436 -0.75225,-1.19027 -0.0965,-0.59355 -0.40066,-1.42296 -0.67597,-1.84313 -0.45718,-0.69774 -0.67473,-0.76395 -2.51011,-0.76395 -1.38291,0 -2.66874,-0.2303 -4.12338,-0.73853 -1.60875,-0.56206 -2.70852,-0.73852 -4.60273,-0.73852 h -2.48892 l -1.65363,2.43713 c -1.13382,1.67101 -1.65324,2.72605 -1.65237,3.35624 7.8e-4,0.8131 -0.0811,0.90336 -0.71323,0.78253 -0.66608,-0.12732 -0.72826,-0.30196 -0.91782,-2.57755 -0.28079,-3.37081 -0.24268,-3.33443 -2.85257,-2.72397 -1.18901,0.27811 -2.69356,0.5072 -3.34347,0.50908 -0.64989,0.002 -1.76485,0.13789 -2.47766,0.30222 -1.08156,0.24935 -1.61561,0.19243 -3.22728,-0.3439 -1.16525,-0.38776 -2.76028,-0.65798 -4.02136,-0.68128 -1.14954,-0.0213 -2.38918,-0.20673 -2.75474,-0.41223 -0.57801,-0.32493 -0.66469,-0.30649 -0.66469,0.14137 0,0.37926 -0.33091,0.19363 -1.25548,-0.7043 -1.0677,-1.03694 -1.50282,-1.24922 -2.90903,-1.41926 -1.59463,-0.19282 -1.67598,-0.24612 -2.28326,-1.49607 -0.62604,-1.2886 -0.63707,-1.29512 -1.8986,-1.12221 -1.21474,0.1665 -1.33163,0.11161 -2.73872,-1.28577 -0.80839,-0.80283 -2.00154,-2.08681 -2.65145,-2.8533 l -1.18163,-1.39361 -1.4702,0.45026 c -1.30298,0.39903 -1.4983,0.40004 -1.71727,0.009 -0.23033,-0.41156 -8.7766,-7.05199 -10.51186,-8.16768 -0.60678,-0.39013 -1.16357,-0.46355 -2.4828,-0.3274 -1.54324,0.15928 -1.7774,0.27992 -2.53029,1.3037 l -0.82967,1.12817 -1.42211,-1.44383 c -0.78217,-0.79411 -1.7584,-1.52823 -2.16942,-1.63139 -0.41101,-0.10316 -1.86039,-0.84503 -3.22087,-1.64859 -4.03852,-2.38538 -5.78881,-3.18613 -6.61783,-3.02765 -0.62305,0.1191 -0.96163,-0.10523 -1.93807,-1.28403 -1.07401,-1.29662 -1.15883,-1.51929 -0.91965,-2.41431 0.3097,-1.15884 -0.3351,-3.43286 -1.43606,-5.06466 -0.81896,-1.21384 -0.94551,-3.09507 -0.22675,-3.37088 0.77283,-0.29657 1.30518,-0.20373 1.30518,0.22763 0,0.86927 0.81123,1.16788 2.15254,0.79234 l 1.26231,-0.35343 -0.30423,-2.86005 c -0.28386,-2.66858 -0.39058,-2.98597 -1.59393,-4.74054 -1.7702,-2.58107 -1.85963,-4.06601 -0.35672,-5.92248 0.58058,-0.71717 0.92267,-1.35103 0.7602,-1.4086 -0.16248,-0.0575 -1.47988,-0.80279 -2.92755,-1.65606 l -2.63213,-1.55141 -0.5005,-2.43744 c -0.27528,-1.34059 -0.57804,-2.51496 -0.6728,-2.60973 -0.22483,-0.22482 -4.27588,-0.9961 -5.23427,-0.99655 -0.40792,-1.9e-4 -1.67073,-0.6236 -2.80622,-1.38534 -1.62756,-1.09185 -2.38537,-1.41162 -3.58013,-1.5107 -1.38355,-0.11473 -1.56776,-0.21924 -2.11483,-1.19983 -0.32959,-0.59077 -0.69453,-1.84907 -0.81098,-2.79621 -0.11645,-0.94713 -0.36126,-1.7714 -0.54401,-1.83172 -0.18277,-0.0603 -0.90619,-0.25669 -1.60763,-0.43638 -0.96612,-0.24751 -1.42082,-0.57334 -1.87549,-1.34393 -0.55264,-0.93668 -0.71343,-1.01723 -2.0306,-1.01723 -0.78673,0 -1.50327,-0.11786 -1.59231,-0.26192 -0.089,-0.14405 -0.63837,-0.35131 -1.22076,-0.46056 -0.87942,-0.16499 -0.999,-0.2708 -0.70561,-0.62431 0.1943,-0.23412 0.71093,-0.42567 1.14805,-0.42567 0.49741,0 1.11235,-0.33145 1.64349,-0.88583 l 0.84869,-0.88585 -0.53851,-1.10817 c -0.88713,-1.82558 -1.63449,-4.56607 -1.6369,-6.00227 l -0.002,-1.34917 -2.28941,-0.55505 c -1.25919,-0.30526 -2.82172,-0.52584 -3.47227,-0.49016 -1.00744,0.0553 -1.25564,-0.0551 -1.67362,-0.74397 -0.46428,-0.76518 -0.45908,-0.85332 0.0965,-1.63356 l 0.58726,-0.82474 -1.07253,-1.25299 -1.07252,-1.253 0.7071,-0.59146 c 0.3889,-0.3253 0.99736,-1.32259 1.35214,-2.21621 0.601,-1.51377 0.79097,-1.70358 2.78113,-2.77871 1.17484,-0.63469 2.8672,-1.65302 3.76081,-2.263 0.96276,-0.65716 2.16639,-1.19396 2.9541,-1.31747 0.73115,-0.11464 1.56592,-0.33273 1.85508,-0.48463 0.43342,-0.2277 0.60235,-0.0928 0.96207,0.76808 l 0.43632,1.04429 1.84433,-0.16382 c 1.01438,-0.0901 2.42395,-0.37045 3.13238,-0.62296 1.10181,-0.39274 1.38868,-0.67803 1.98398,-1.97315 1.09798,-2.38866 1.29715,-2.54797 3.18569,-2.54797 1.63627,0 1.66604,-0.0151 1.66604,-0.84526 0,-0.77206 0.19132,-0.92559 2.20883,-1.77246 1.77134,-0.74354 2.62242,-0.92718 4.29698,-0.92718 1.87793,0 2.37674,-0.1385 4.95484,-1.37569 4.89219,-2.34768 8.28205,-4.34159 8.45908,-4.97563 0.0907,-0.32494 0.25122,-1.48812 0.35666,-2.58483 0.10544,-1.0967 0.29471,-1.99401 0.42059,-1.99401 0.12588,0 0.77203,-0.52187 1.4359,-1.15969 1.4042,-1.34916 1.62189,-2.63816 0.77699,-4.6008 -0.27977,-0.6499 -0.83015,-2.89907 -1.22305,-4.99816 -0.39292,-2.0991 -0.74725,-3.84413 -0.78742,-3.87787 -0.0402,-0.0337 -0.64903,-0.35186 -1.35302,-0.70697 -0.89697,-0.45243 -1.22847,-0.77992 -1.10779,-1.0944 0.0947,-0.24682 0.17221,-0.50436 0.17221,-0.57232 0,-0.0679 0.28305,-0.12355 0.62901,-0.12355 0.34595,0 2.88333,-0.5982 5.63862,-1.32934 2.7553,-0.73114 5.20269,-1.32934 5.43866,-1.32934 0.23597,0 0.95018,0.26587 1.58713,0.59082 0.97121,0.49546 3.84033,0.85427 3.84033,0.48025 0,-0.0608 -0.19324,-0.65826 -0.42941,-1.32765 -0.86077,-2.43965 -0.70209,-3.40332 1.29533,-7.86718 1.01782,-2.27466 2.07022,-4.63289 2.33865,-5.24051 0.41319,-0.93534 0.62982,-1.10525 1.41243,-1.10779 0.50842,-0.002 1.69109,0.34801 2.6282,0.77702 l 1.7038,0.78003 5.32707,-0.21028 c 4.47638,-0.17669 5.51259,-0.3049 6.48869,-0.80288 l 1.16162,-0.59261 -0.20959,-2.56198 c -0.11527,-1.40908 -0.22501,-2.62844 -0.24388,-2.70967 -0.0188,-0.0812 0.21395,-1.04761 0.51737,-2.1475 0.4237,-1.53592 0.6953,-2.03425 1.17093,-2.14838 0.34059,-0.0817 1.52982,-0.33611 2.64274,-0.56529 1.11291,-0.22917 2.06121,-0.4588 2.10734,-0.51029 0.51621,-0.57625 2.5159,-3.97425 2.5159,-4.27516 0,-0.44794 1.67347,-0.5221 4.68321,-0.20752 l 1.8158,0.18979 v 1.13955 c 0,0.94262 0.1021,1.13956 0.59081,1.13956 0.32495,0 0.59082,0.19444 0.59082,0.4321 0,0.23766 0.83084,0.99199 1.8463,1.67629 1.01548,0.6843 2.73153,1.93202 3.81344,2.77272 1.88867,1.46759 2.0577,1.5354 4.23832,1.70032 3.38245,0.25581 5.12737,1.20325 6.54252,3.55236 0.60644,1.00666 1.88621,2.89377 2.84396,4.19356 l 1.74136,2.36329 -0.16858,2.12663 c -0.12939,1.63229 -0.42144,2.63768 -1.25637,4.32505 l -1.08781,2.19841 1.10705,1.5081 c 1.3009,1.77217 2.28269,2.13799 7.26208,2.70588 8.19154,0.93424 13.26684,1.71707 14.34323,2.21236 0.64117,0.29501 2.52134,1.31064 4.17815,2.25694 2.45828,1.40406 3.25978,1.72053 4.3573,1.72053 1.33227,0 1.34489,0.009 1.34489,1.00334 0,0.76546 0.23139,1.20649 0.97594,1.86021 0.53677,0.47129 1.54344,1.9141 2.23703,3.20626 0.69361,1.29215 1.71249,2.81592 2.26418,3.38615 0.5517,0.57022 1.15103,1.46117 1.33186,1.97988 l 0.32878,0.94311 4.0379,-0.0597 c 2.22085,-0.0328 5.76606,0.1069 7.87824,0.31054 2.11217,0.20365 6.36607,0.43514 9.4531,0.51445 3.08702,0.0793 7.72292,0.29673 10.30197,0.4832 l 4.6892,0.33902 2.54834,1.4042 c 3.17553,1.74978 7.39436,2.98927 13.44585,3.95039 2.57337,0.4087 4.90018,0.93554 5.26718,1.19259 0.36157,0.25326 0.95858,0.46047 1.32666,0.46047 0.3681,0 3.03044,-0.94449 5.91632,-2.09886 2.88588,-1.15438 6.77245,-2.56253 8.63682,-3.12921 3.19864,-0.97226 3.61503,-1.02839 7.38523,-0.99543 3.59201,0.0314 10.91066,-0.71235 13.30087,-1.35167 0.4062,-0.10863 2.06787,-1.0925 3.69262,-2.18635 1.62476,-1.09386 4.15437,-2.66664 5.62137,-3.49507 1.46701,-0.82843 3.24989,-2.09986 3.96196,-2.82542 1.44726,-1.47465 1.51333,-1.1101 -0.68449,-3.77677 -1.02457,-1.24313 -1.13286,-1.52569 -0.99073,-2.58527 0.11202,-0.83524 0.58588,-1.71709 1.59079,-2.96051 0.78719,-0.974 1.56419,-1.7699 1.72667,-1.76866 0.16248,7.7e-4 2.13433,0.53248 4.38192,1.18053 2.24757,0.64806 4.40954,1.17829 4.80437,1.17829 1.06794,0 7.04387,-2.76467 8.69089,-4.02071 1.38738,-1.05803 1.50506,-1.0911 3.65819,-1.02823 2.0389,0.0596 2.4307,-0.0316 4.69155,-1.09105 1.94445,-0.9112 2.5446,-1.34367 2.83393,-2.04216 0.20185,-0.48738 1.2873,-1.71007 2.41204,-2.71709 1.83548,-1.64334 2.23478,-1.86387 3.89688,-2.15223 1.0185,-0.1767 2.19195,-0.56025 2.60772,-0.85232 1.26113,-0.88602 5.64944,-1.56031 8.54951,-1.31365 2.9306,0.24924 7.65509,0.19602 8.16503,-0.092 0.25883,-0.14619 0.14253,-0.72813 -0.43476,-2.17522 -0.76218,-1.91059 -0.91746,-2.07898 -4.71468,-5.11332 -3.51156,-2.80607 -4.09594,-3.16523 -5.52944,-3.39854 -2.29543,-0.37359 -3.58698,-0.0897 -5.67801,1.24809 l -1.84055,1.17754 -1.96964,-0.76119 -1.96961,-0.76119 -2.41173,0.60488 -2.41169,0.60487 -1.51515,-0.94186 -1.51515,-0.94187 2.44662,-4.7671 c 1.93786,-3.77582 4.54078,-8.41012 5.04799,-8.98761 0.0409,-0.0466 1.31511,0.18602 2.83151,0.51697 4.13818,0.90318 6.01719,0.81728 8.29905,-0.37939 1.02897,-0.53961 3.11123,-1.42386 4.62724,-1.96498 l 2.75638,-0.98387 -0.0977,-1.37154 c -0.091,-1.27778 0.0808,-1.66348 2.5132,-5.64181 2.2876,-3.74153 2.86148,-4.46596 4.63498,-5.85071 2.32942,-1.81884 2.98041,-3.12093 2.68054,-5.36168 l -0.1779,-1.32935 -1.80835,-0.2423 c -1.47329,-0.19742 -1.86574,-0.3683 -2.11817,-0.9223 -0.28595,-0.62761 -0.14153,-0.79749 1.87503,-2.20543 2.06769,-1.44368 2.4267,-1.57914 6.69699,-2.52706 4.08218,-0.90616 5.13156,-1.0206 11.01121,-1.20076 l 6.49902,-0.19915 3.03388,1.21137 c 2.36275,0.94341 3.42337,1.21138 4.79467,1.21138 1.50751,0 1.99327,0.14871 3.37706,1.03393 0.88898,0.56866 1.78029,1.03393 1.98072,1.03393 0.58119,0 1.70425,1.20521 1.53472,1.647 -0.0849,0.22135 0.63107,1.37038 1.59117,2.55339 0.9601,1.183 2.18703,3.01499 2.72653,4.07108 0.53951,1.05609 1.22161,2.32289 1.51581,2.81511 0.36305,0.60743 0.44663,1.03449 0.26017,1.32934 -0.41671,0.65889 -0.33701,0.99402 0.14188,0.59659 0.35449,-0.29419 0.45865,-0.16437 0.62299,0.7762 0.1085,0.62121 0.71456,2.08699 1.34678,3.25728 0.63222,1.17029 1.14949,2.39526 1.14949,2.72215 0,0.32688 0.27851,0.74339 0.61891,0.92557 0.51372,0.27492 0.5863,0.50526 0.42693,1.35477 -0.17403,0.92755 -0.0492,1.18834 1.33046,2.78096 1.33422,1.5401 1.65587,1.75851 2.60102,1.76622 0.59321,0.005 3.11413,0.30863 5.60198,0.67509 l 4.52342,0.66627 2.9105,2.13131 c 2.12399,1.55537 3.15677,2.13131 3.82189,2.13131 0.89373,0 0.91143,0.028 0.91143,1.44088 0,0.9204 0.16005,1.57372 0.4431,1.80863 0.26006,0.21583 0.44313,0.86073 0.44313,1.56112 0,0.73547 0.27945,1.67022 0.72832,2.43617 0.7187,1.22636 0.76346,1.24965 3.3778,1.75745 1.45723,0.28303 3.15673,0.45261 3.77667,0.37684 2.65954,-0.32508 5.56531,-1.1808 7.76472,-2.28665 1.29764,-0.65244 2.74232,-1.18625 3.21039,-1.18625 0.46811,0 2.28443,-0.53173 4.03633,-1.18164 2.47621,-0.9186 3.58695,-1.17825 4.98985,-1.16641 l 1.80457,0.0152 -1.05884,0.43995 c -0.67861,0.28198 -1.22899,0.7968 -1.5327,1.43373 -0.43615,0.91456 -0.43502,1.11543 0.0141,2.51992 l 0.48805,1.52614 -1.69958,1.4908 c -1.99114,1.74657 -2.65658,2.92534 -3.32649,5.89256 -0.60656,2.68666 -1.41362,4.31286 -3.98554,8.03065 -1.10383,1.5956 -2.08743,3.26742 -2.18577,3.71516 l -0.17878,0.81406 -3.60656,-0.53185 c -1.98363,-0.29253 -3.96801,-0.5353 -4.40973,-0.53952 -0.46066,-0.004 -1.67952,0.55927 -2.85813,1.3217 -1.13022,0.73114 -2.2501,1.32934 -2.48858,1.32934 -0.80892,0 -0.78496,0.90322 0.11136,4.19972 1.0637,3.91204 1.00751,6.18426 -0.23667,9.56944 l -0.77199,2.10049 -1.9962,0.64292 -1.99618,0.64292 0.31043,0.89043 c 0.539,1.54619 -0.0189,1.31759 -0.68261,-0.27975 -0.6814,-1.63957 -1.17018,-1.93247 -2.94044,-1.76197 -0.90866,0.0875 -1.02653,0.21553 -1.39065,1.5103 -0.35024,1.24541 -0.57546,1.5105 -1.88247,2.21556 -0.81654,0.4405 -2.27781,1.30178 -3.24726,1.91399 -1.49619,0.94483 -2.10033,1.14164 -3.99656,1.30192 l -2.23394,0.18884 0.19322,2.13233 c 0.22247,2.45502 0.18439,2.48986 -2.73082,2.49732 -1.2643,0.003 -1.95163,-0.20561 -3.46843,-1.05386 -1.04044,-0.58183 -1.95946,-1.16756 -2.04232,-1.3016 -0.35015,-0.56655 -1.47717,0.21784 -3.72503,2.59256 -1.31566,1.38991 -2.53213,2.8344 -2.70326,3.20998 -0.20821,0.457 -0.66261,0.74586 -1.37372,0.8733 -1.83274,0.32845 -6.49035,3.29102 -9.33408,5.93711 -2.49125,2.31812 -2.7331,2.46964 -3.84032,2.40596 -2.09256,-0.12035 -5.16967,0.36543 -5.16967,0.81613 0,0.23465 -0.30241,0.40869 -0.71017,0.40869 -0.99101,0 -5.78107,2.53304 -6.67507,3.52984 -0.85618,0.95465 -2.36346,1.78754 -3.23482,1.78754 -0.40371,0 -0.6055,0.19227 -0.6055,0.57694 0,0.41504 -0.31083,0.66325 -1.10779,0.88457 -2.41432,0.67049 -2.4695,0.2139 -0.1295,-1.07106 1.57237,-0.86343 1.71222,-1.0238 1.73975,-1.9952 0.0286,-1.00867 -0.0227,-1.06471 -1.13778,-1.24302 -0.96973,-0.15507 -1.15259,-0.29134 -1.07856,-0.8038 0.0489,-0.33939 0.37872,-0.76086 0.73268,-0.9366 0.44988,-0.22335 0.56659,-0.4441 0.38778,-0.73341 -0.1833,-0.29659 0.0946,-0.71049 0.98064,-1.46034 1.41699,-1.19924 2.60103,-2.41831 3.62905,-3.7365 0.67539,-0.86602 0.69152,-0.9753 0.2869,-1.94368 -0.2358,-0.56433 -0.6564,-1.21489 -0.93464,-1.44566 -0.27828,-0.23079 -0.68633,-0.85111 -0.9068,-1.37852 -0.43047,-1.02981 -0.90212,-1.12193 -1.5184,-0.29657 -0.43346,0.58049 -1.29292,0.66685 -2.13764,0.21477 -0.89217,-0.47746 -2.4621,0.35926 -4.43637,2.36442 -0.96502,0.98012 -1.75471,1.88083 -1.75488,2.00162 -1.6e-4,0.12077 -1.06912,0.88426 -2.37542,1.69664 -3.21454,1.99905 -6.12585,4.49117 -6.81578,5.83434 -0.31296,0.60928 -0.6237,1.10778 -0.69055,1.10778 -0.0669,0 -1.1721,0.38735 -2.45609,0.86078 l -2.33454,0.86077 -1.24734,-0.55844 -1.2473,-0.55843 -1.18208,0.78226 c -1.20104,0.7948 -2.62465,2.82909 -2.62465,3.75051 0,0.27867 0.33233,0.99576 0.73852,1.59351 0.40619,0.59776 0.73852,1.37391 0.73852,1.72477 0,0.42622 0.23426,0.69672 0.70591,0.81509 0.45812,0.11498 0.85882,0.56053 1.14149,1.26926 0.42773,1.07237 0.44206,1.08002 0.79341,0.42347 0.30434,-0.56865 0.52016,-0.64214 1.44335,-0.49152 0.59702,0.0974 1.49548,0.0566 1.99658,-0.0908 1.21647,-0.35773 1.89532,0.0557 1.89532,1.15444 0,0.47935 0.14463,0.87155 0.32138,0.87155 0.47838,0 -1.3e-4,2.45565 -0.53915,2.76685 -0.36643,0.21154 -0.29642,0.38267 0.40426,0.9879 2.44785,2.11445 3.88263,2.13128 6.35402,0.0745 0.96889,-0.80632 1.89458,-1.46604 2.05706,-1.46604 0.16251,0 0.43342,-0.39577 0.60204,-0.8795 0.24859,-0.71308 0.60113,-0.97234 1.86317,-1.37017 l 1.55658,-0.49066 3.51269,1.4965 c 2.95646,1.25953 3.6764,1.46116 4.54662,1.27335 0.65534,-0.14144 1.45317,-0.0795 2.17885,0.16908 0.62972,0.21573 1.5086,0.39223 1.95306,0.39223 0.71966,0 0.7923,0.0889 0.66371,0.81237 -0.0794,0.44681 -0.4165,1.11148 -0.74905,1.47706 -0.34891,0.38352 -0.45351,0.66467 -0.24734,0.66467 0.26649,0 0.27644,0.15107 0.0392,0.59457 -0.25688,0.48002 -0.42965,0.53492 -0.89662,0.28501 -0.31814,-0.17025 -0.57842,-0.52488 -0.57842,-0.78806 0,-0.43705 -0.0468,-0.43609 -0.54095,0.0111 -0.2975,0.26925 -0.60804,0.42244 -0.69005,0.34043 -0.082,-0.0821 -0.8909,0.10609 -1.79753,0.41803 -0.90664,0.31192 -1.71244,0.50314 -1.79066,0.42491 -0.0783,-0.0782 -1.08306,0.33158 -2.233,0.91067 -1.14991,0.57909 -2.30975,1.05289 -2.57742,1.05289 -0.3728,0 -0.40995,0.0924 -0.15875,0.39509 0.25065,0.30204 0.15482,0.55766 -0.40696,1.08543 -0.40415,0.37968 -0.73483,0.86986 -0.73483,1.08927 0,0.59858 -1.5067,1.09363 -2.1377,0.70237 -0.69161,-0.42882 -1.62272,-0.40216 -1.78812,0.0512 -0.0741,0.2031 0.13961,0.67071 0.47491,1.03915 l 0.6096,0.66989 -1.29953,1.32413 c -0.71475,0.72827 -1.44388,1.32412 -1.62027,1.32412 -0.53667,0 -3.3713,3.60663 -3.87855,4.93491 -0.57268,1.49948 -0.38396,2.15493 0.6204,2.15493 0.4113,0 0.7478,0.16742 0.7478,0.37205 0,0.20462 0.26587,0.53809 0.59081,0.74103 0.32495,0.20293 0.59082,0.56307 0.59082,0.80031 0,0.24765 0.17553,0.36398 0.41216,0.27318 0.22666,-0.087 0.93468,-0.0175 1.57331,0.15452 1.5063,0.4056 2.88846,2.09128 3.17608,3.87351 0.117,0.72508 0.451,1.51774 0.74218,1.76145 0.54399,0.4553 2.49798,5.83063 2.79383,7.68578 0.13971,0.87602 0.42058,1.19151 1.78998,2.01058 1.23614,0.73936 1.62426,1.13825 1.62426,1.6693 0,1.08306 0.30728,1.63236 0.91317,1.63236 0.69952,0 2.22889,1.41136 2.48084,2.28943 0.25662,0.89441 -0.3516,0.871 -2.17758,-0.0838 -1.1245,-0.58799 -1.68024,-0.70866 -2.59207,-0.56286 -1.02005,0.16313 -1.27924,0.0748 -2.13932,-0.72859 -1.108,-1.03501 -2.29387,-1.18649 -3.43503,-0.43877 -0.83019,0.54396 -0.69554,1.16171 0.15406,0.70701 1.02214,-0.54703 1.99723,-0.34101 2.63673,0.55708 0.33417,0.46931 1.27378,1.28078 2.08799,1.80325 0.8142,0.52248 1.48038,1.07688 1.48038,1.23201 0,0.15513 0.11672,0.20993 0.25935,0.12177 0.34657,-0.21419 2.97958,2.12419 3.27144,2.90536 0.71664,1.91804 0.71153,1.9466 -0.34922,1.9466 -0.69554,0 -1.83769,0.51968 -3.80388,1.73071 -1.54543,0.95191 -3.49992,1.90757 -4.34328,2.12372 -1.65037,0.42298 -2.09185,0.85176 -0.66071,0.64171 0.74226,-0.10894 0.90153,-0.013 1.06594,0.64199 0.24266,0.96683 0.96159,0.99664 3.21728,0.13345 l 1.66358,-0.63661 0.94752,0.91372 c 0.52116,0.50254 1.58381,1.18516 2.36145,1.51692 1.38121,0.58928 1.40345,0.61912 0.9627,1.29176 -0.24814,0.37872 -0.97012,0.98024 -1.6044,1.33672 -1.6721,0.93977 -1.79567,1.53147 -0.31981,1.53147 0.84517,0 1.17237,-0.12366 1.17237,-0.44311 0,-0.2437 0.1994,-0.44311 0.4431,-0.44311 0.47119,0 0.5075,0.29598 0.18036,1.47041 -0.17955,0.64464 -0.34545,0.72165 -1.39171,0.64611 -1.01792,-0.0735 -1.23537,0.0185 -1.5199,0.64295 -0.27757,0.60922 -0.23828,0.81355 0.23954,1.24598 0.76544,0.69272 0.7392,2.01477 -0.0504,2.53903 -0.60137,0.39929 -0.60704,0.46307 -0.17138,1.93016 l 0.45057,1.5172 -0.85214,0.35297 c -0.71123,0.29461 -0.93063,0.27448 -1.32678,-0.12167 -0.69914,-0.69913 -0.93617,-0.60082 -1.78208,0.73914 -0.69578,1.10219 -0.85226,1.19774 -1.7023,1.03947 l -0.93609,-0.1743 0.70215,0.58914 0.7022,0.58916 -0.77605,1.11979 c -0.42681,0.6159 -0.77601,1.4293 -0.77601,1.80758 0,0.37828 -0.27494,1.13263 -0.61097,1.67634 -0.59184,0.95764 -0.63341,0.97384 -1.32934,0.51786 -0.76399,-0.50059 -1.0085,-0.24993 -0.29576,0.30321 0.36403,0.28251 0.35381,0.45422 -0.0738,1.2387 -1.25039,2.29375 -1.65001,2.71226 -2.34441,2.45539 -0.36468,-0.13491 -0.66313,-0.34926 -0.66325,-0.47635 -1.1e-4,-0.12709 -0.33156,-0.25019 -0.73657,-0.27357 -0.40501,-0.0234 -0.66293,0.0764 -0.57318,0.22157 0.0898,0.14521 0.0272,0.26404 -0.13926,0.26404 -0.16634,0 -0.44713,0.27032 -0.62393,0.60071 -0.28138,0.52574 -0.20895,0.63996 0.58042,0.91512 0.94197,0.32838 1.22299,0.84744 0.45879,0.84744 -0.62922,0 -0.54889,0.51342 0.13782,0.88093 0.5483,0.29345 0.51929,0.36856 -0.51697,1.3384 l -1.09789,1.0275 0.69931,0.54571 c 0.81954,0.63952 0.67369,1.64112 -0.36151,2.48274 -0.42668,0.3469 -0.52577,0.58776 -0.30378,0.73852 0.46811,0.31789 0.81469,1.55307 0.4358,1.55307 -0.16966,0 -0.52595,-0.33187 -0.79173,-0.73748 l -0.4832,-0.73749 -0.70013,0.66364 c -0.77393,0.7336 -0.89549,1.39423 -0.35584,1.93389 0.2757,0.27572 0.19036,0.3545 -0.38404,0.3545 -0.40618,0 -0.89804,-0.15953 -1.09301,-0.3545 -0.39151,-0.39152 -0.43851,-0.26911 -0.47632,1.24072 -0.0224,0.89067 -0.17907,1.1088 -1.13157,1.57423 -0.93284,0.45584 -1.05983,0.62598 -0.81237,1.08836 0.16133,0.30145 0.29331,0.68975 0.29331,0.86291 0,0.4673 -0.75882,0.38117 -1.18698,-0.13474 -0.32953,-0.39706 -0.42196,-0.37981 -0.79147,0.1477 -0.46222,0.65996 -1.15767,0.7897 -1.33772,0.24957 -0.0644,-0.19317 -0.27763,-0.24777 -0.47975,-0.12285 -0.20147,0.12451 -0.28369,0.47744 -0.18422,0.79083 0.12588,0.39657 0.0383,0.56595 -0.29267,0.56595 -0.63007,0 -0.90344,0.78749 -0.45921,1.32277 0.29074,0.3503 0.0935,0.72834 -1.07473,2.06038 -1.48046,1.688 -1.71307,1.84259 -2.0216,1.3434 -0.22673,-0.36686 -0.73853,-0.38851 -0.73853,-0.0312 0,0.65279 -1.75358,2.09955 -2.55564,2.10851 -0.46285,0.005 -1.04894,0.17133 -1.30244,0.36926 -2.06437,1.61196 -2.09311,1.64768 -1.78648,2.22061 0.41673,0.77871 -0.72615,1.81386 -3.25917,2.95194 -1.94266,0.87286 -1.96711,0.87582 -2.53579,0.30713 -0.56867,-0.56866 -0.58304,-0.56594 -1.49061,0.28185 -0.89197,0.83322 -0.931,0.84146 -1.46346,0.30899 -0.53248,-0.53246 -0.58445,-0.52334 -1.94928,0.34221 -1.66363,1.05505 -1.87161,1.08174 -2.12824,0.27318 l -0.19553,-0.61608 -0.7106,0.66757 c -0.39084,0.36717 -0.71085,0.81057 -0.71115,0.98534 -3e-4,0.18981 -0.85776,0.35034 -2.12915,0.39865 l -2.12858,0.0809 -1.5804,-1.70562 c -1.42553,-1.53847 -1.5683,-1.62601 -1.45675,-0.89325 0.068,0.4468 -0.005,0.81237 -0.16238,0.81237 -0.15733,0 -0.19591,0.23264 -0.0857,0.51697 0.77147,1.99117 0.62944,3.91418 -0.28908,3.91418 -0.22992,0 -0.56033,0.26587 -0.73424,0.59082 -0.47119,0.88044 -1.08298,0.71486 -1.29611,-0.35079 -0.24556,-1.22786 -0.75903,-0.75405 -0.98166,0.90585 -0.15394,1.1476 -0.21924,1.2174 -1.1391,1.2174 -0.5367,0 -1.30549,0.12534 -1.70843,0.27854 -0.55592,0.21136 -0.77207,0.17573 -0.89619,-0.14771 -0.25564,-0.66617 -0.74284,-0.50127 -0.94929,0.3213 -0.12652,0.50409 -0.34482,0.70545 -0.67029,0.61828 -1.78149,-0.47712 -2.09043,-0.48357 -1.92026,-0.0401 0.0943,0.24572 0.0724,0.6794 -0.0485,0.96372 -0.18862,0.44331 -0.24759,0.41195 -0.41381,-0.22 -0.30106,-1.14455 -1.08871,-1.09186 -1.48176,0.0991 -0.28134,0.85247 -0.51565,1.05174 -1.43146,1.21737 -0.60228,0.10893 -1.58785,0.19274 -2.19017,0.18625 -0.60231,-0.007 -1.17513,0.11766 -1.27293,0.2759 -0.0978,0.15823 -0.45382,0.28769 -0.79117,0.28769 -0.33735,0 -0.92136,0.33233 -1.2978,0.73852 -0.88846,0.95867 -1.17853,0.93111 -1.55461,-0.1477 -0.16992,-0.48742 -0.3948,-0.88624 -0.49973,-0.88624 -0.29931,0 0.18752,3.05408 0.56008,3.51368 0.27562,0.34003 0.20563,0.37118 -0.40121,0.17858 -0.40429,-0.12833 -0.88111,-0.43302 -1.05959,-0.67711 -0.27501,-0.3761 -0.35179,-0.33953 -0.50327,0.23975 -0.11834,0.45249 0.0395,0.99012 0.46695,1.5904 0.35515,0.49874 0.60456,1.14975 0.55426,1.44665 -0.0503,0.29691 0.12816,0.87502 0.39658,1.28467 0.45561,0.69535 0.45401,0.7824 -0.024,1.31065 -0.52008,0.57469 -0.69831,0.61055 -1.74985,0.35208 h -6e-5 z"
       id="path14812"
       inkscape:connector-curvature="0" />
    <path
       style="fill:url(#linearGradient4344);fill-opacity:1;stroke-width:0.03143157;stroke-miterlimit:10;stroke-dasharray:none"
       d="m -682.26307,-325.83956 -2.36327,-0.94388 -0.21885,-2.61924 -0.21884,-2.61925 1.14857,-1.24606 c 0.63172,-0.68533 1.51224,-1.79557 1.9567,-2.46721 0.70857,-1.07071 0.94469,-1.22116 1.91654,-1.22116 0.85831,0 1.21833,-0.16777 1.59558,-0.74352 0.40809,-0.62283 0.58402,-0.69169 1.08382,-0.4242 0.6789,0.36333 5.0982,0.0875 5.9861,-0.37361 0.42741,-0.22197 0.73422,-0.10473 1.4032,0.53618 0.91645,0.87804 1.09753,1.77053 0.46702,2.30193 -0.21404,0.18038 -1.04488,1.76881 -1.84632,3.52985 -1.38812,3.05021 -1.5708,3.2986 -3.8565,5.24353 -2.8574,2.43138 -3.38912,2.51027 -7.05375,1.04664 z"
       id="path14814"
       inkscape:connector-curvature="0" />
    <path
       style="fill:url(#linearGradient4346);fill-opacity:1;stroke-width:0.03143157;stroke-miterlimit:10;stroke-dasharray:none"
       d="m -602.02477,-356.05874 c -1.45307,-1.96916 -3.28413,-6.41591 -3.28413,-7.97554 0,-0.35051 0.40386,-1.87893 0.89745,-3.39647 1.23796,-3.80608 3.89336,-8.15634 6.39724,-10.48037 l 1.95329,-1.813 1.26591,0.43134 c 0.69624,0.23723 1.40183,0.59512 1.56797,0.7953 0.21224,0.25573 -0.0505,1.589 -0.8833,4.48347 -0.65195,2.26571 -1.59854,5.78117 -2.10356,7.8121 -0.59978,2.41208 -1.20317,4.11222 -1.73996,4.90259 -0.47904,0.70535 -1.1263,2.4093 -1.55199,4.08569 -0.40162,1.58165 -0.7974,2.9429 -0.87951,3.025 -0.0821,0.0821 -0.81985,-0.75943 -1.63941,-1.87011 z"
       id="path14816"
       inkscape:connector-curvature="0" />
    <path
       inkscape:connector-curvature="0"
       style="fill:url(#radialGradient9460);fill-opacity:1;fill-rule:nonzero;stroke:none;stroke-width:0.15444425"
       d="m -725.64163,-581.99902 c -47.55973,0 -86.12073,25.88509 -86.12073,57.82071 0,31.93564 38.561,57.82902 86.12073,57.82902 47.55973,0 86.11243,-25.89338 86.11243,-57.82902 0,-31.93562 -38.5527,-57.82071 -86.11243,-57.82071 z m 14.58182,18.26879 c 36.07865,0 65.32751,17.70649 65.32751,39.55192 0,21.84546 -29.24886,39.56023 -65.32751,39.56023 -36.07866,0 -65.32753,-17.71477 -65.32753,-39.56023 0,-21.84543 29.24887,-39.55192 65.32753,-39.55192 z"
       id="path5248-5-8-3-9-8-2" />
    <path
       d="m -702.28481,-512.21371 q 8.50894,0 12.16567,-2.98477 3.72706,-2.98476 3.72706,-9.81657 0,-6.76547 -3.72706,-9.68391 -3.65673,-2.91845 -12.16567,-2.91845 h -11.39212 v 25.4037 z m -11.39212,17.64328 v 37.47542 h -27.07387 v -99.02795 h 41.34919 q 20.74492,0 30.37899,6.56649 9.70441,6.56649 9.70441,20.76072 0,9.81657 -5.06317,16.11774 -4.99284,6.30118 -15.11917,9.28594 5.55542,1.19391 9.91537,5.43892 4.43026,4.17868 8.93086,12.735 l 14.69725,28.12314 h -28.83192 l -12.79857,-24.60774 q -3.8677,-7.42876 -7.87603,-10.14821 -3.93802,-2.71947 -10.54827,-2.71947 z"
       style="font-style:normal;font-variant:normal;font-weight:900;font-stretch:normal;font-size:966.00817871px;line-height:1.25;font-family:Frutiger;-inkscape-font-specification:'Frutiger Heavy';letter-spacing:0px;word-spacing:0px;fill:url(#linearGradient4712);fill-opacity:1;stroke:#739eeb;stroke-width:2.25460172;stroke-miterlimit:4;stroke-dasharray:none;stroke-opacity:1"
       id="path4690"
       inkscape:connector-curvature="0" />
    <path
       d="m -401.05932,-532.23585 v -8.35232 q 0,-9.44769 -0.82154,-14.92462 h 17.25232 q -0.82154,6.29846 -0.82154,14.37693 v 8.90001 h 37.51695 q 7.6677,0 12.46001,-0.54769 -0.54769,5.06615 -0.54769,12.04923 v 41.76157 q 0,8.76309 0.68461,13.69232 h -16.15693 v -8.21539 h -33.95695 v 27.7954 q 0,10.26924 0.95847,16.97848 h -17.52617 q 0.95846,-7.12001 0.95846,-16.97848 v -27.7954 h -32.31387 v 8.21539 h -16.15693 q 0.68461,-5.61385 0.68461,-13.69232 v -41.89849 q 0,-6.02462 -0.54769,-11.91231 5.34001,0.54769 12.32309,0.54769 z m 0,14.51385 h -32.31387 v 29.71233 h 32.31387 z m 15.60924,29.71233 h 33.95695 V -517.722 h -33.95695 z"
       style="font-style:normal;font-variant:normal;font-weight:600;font-stretch:normal;font-size:136.923172px;line-height:0;font-family:'Hiragino Sans GB';-inkscape-font-specification:'Hiragino Sans GB Semi-Bold';letter-spacing:10px;word-spacing:0px;fill:#000000;fill-opacity:1;stroke:none;stroke-width:1.06666672px;stroke-linecap:butt;stroke-linejoin:miter;stroke-opacity:1"
       id="path4693"
       inkscape:connector-curvature="0" />
    <path
       d="m -253.8623,-515.66815 h -14.92463 q -7.66769,0 -12.46,0.68462 v -13.82924 q 4.65538,0.68461 12.46,0.68461 h 46.55388 q 8.48924,0 12.73386,-0.68461 v 13.82924 q -4.79231,-0.68462 -12.73386,-0.68462 h -17.38924 v 14.24001 h 14.10309 q 7.80462,0 11.77539,-0.68461 v 13.55539 q -4.79231,-0.68462 -8.76308,-0.68462 5.34,6.43539 8.62616,13.28155 l -7.39386,4.1077 h 0.5477 q 8.07846,0 12.87078,-0.82154 v 14.24001 q -4.79232,-0.68462 -12.87078,-0.68462 h -49.56619 q -8.35231,0 -13.0077,0.68462 v -14.24001 q 4.79231,0.82154 13.0077,0.82154 h 16.43078 v -17.38925 h -11.77539 q -7.53078,0 -11.7754,0.68462 v -13.55539 q 4.1077,0.68461 11.7754,0.68461 h 11.77539 z m 14.24001,26.42617 v 17.38925 h 14.7877 q -0.27384,-0.41077 -0.54769,-1.23231 -3.56,-7.25693 -8.07847,-12.46001 l 7.25693,-3.69693 z m -64.49081,42.30926 v -87.63083 q 0,-8.07846 -0.82154,-16.5677 5.61385,0.68462 16.15693,0.68462 h 86.39852 q 9.85847,0 16.15694,-0.68462 -0.82154,7.6677 -0.82154,16.43078 v 87.90468 q 0,12.59693 0.82154,17.66309 h -15.60925 v -7.80462 h -87.4939 v 7.80462 h -15.60924 q 0.82154,-6.16155 0.82154,-17.80002 z m 14.7877,-90.23237 v 86.94622 h 87.4939 v -86.94622 z"
       style="font-style:normal;font-variant:normal;font-weight:600;font-stretch:normal;font-size:136.923172px;line-height:0;font-family:'Hiragino Sans GB';-inkscape-font-specification:'Hiragino Sans GB Semi-Bold';letter-spacing:10px;word-spacing:0px;fill:#000000;fill-opacity:1;stroke:none;stroke-width:1.06666672px;stroke-linecap:butt;stroke-linejoin:miter;stroke-opacity:1"
       id="path4695"
       inkscape:connector-curvature="0" />
    <path
       d="m 61.767255,-557.01895 16.704627,3.01231 q -1.095385,1.78001 -2.053847,3.14924 6.709235,7.25692 10.132314,10.40616 3.560003,3.01231 9.584622,7.25693 16.567709,12.04924 38.064639,19.16924 -4.65538,6.57231 -7.80462,15.06155 -13.14462,-5.34 -23.00309,-11.09078 v 10.13232 q -4.792311,-0.5477 -12.323086,-0.5477 H 45.336475 q -6.846159,0 -11.775393,0.5477 v -10.13232 q -7.393851,4.51847 -21.770785,11.09078 -1.780001,-6.16154 -8.078467,-15.06155 13.281548,-4.92923 21.907708,-9.99539 13.555394,-7.94155 21.907707,-15.60924 8.489237,-7.6677 14.24001,-17.38925 z m -16.293857,42.30926 h 45.458493 4.655388 q -16.293858,-10.81693 -27.932327,-24.2354 -10.680008,12.87078 -26.836942,24.2354 z m -26.426172,83.79699 -2.875387,-15.19848 q 4.929234,-0.68461 7.667698,-2.73846 8.900006,-7.94154 20.675399,-24.78309 H 26.16723 q -9.447698,0 -16.156934,0.82153 v -15.88308 q 6.709236,0.82154 16.156935,0.82154 h 85.166209 q 9.17386,0 16.02001,-0.82154 v 15.88308 q -6.84615,-0.82153 -16.02001,-0.82153 H 62.041102 q -1.506155,2.05384 -1.643078,2.32769 -10.953854,15.19847 -20.538476,24.50925 31.903099,-1.36923 54.495422,-4.51847 -3.423079,-3.97077 -13.281547,-14.37693 l 13.555394,-6.02462 q 10.406163,10.81693 16.156933,17.66309 5.75077,6.84616 13.41847,17.38924 l -13.14462,8.62616 q -4.51847,-6.70923 -7.39385,-11.09077 -37.927723,5.34 -65.723127,6.57231 -16.293857,1.09538 -18.895397,1.64308 z"
       style="font-style:normal;font-variant:normal;font-weight:600;font-stretch:normal;font-size:136.923172px;line-height:0;font-family:'Hiragino Sans GB';-inkscape-font-specification:'Hiragino Sans GB Semi-Bold';letter-spacing:10px;word-spacing:0px;fill:#000000;fill-opacity:1;stroke:none;stroke-width:1.06666672px;stroke-linecap:butt;stroke-linejoin:miter;stroke-opacity:1"
       id="path4697"
       inkscape:connector-curvature="0" />
    <path
       d="m 186.64578,-442.6881 4.65539,-1.91692 q 18.75847,-7.39385 33.13541,-19.03232 -10.95386,-12.73386 -17.1154,-30.26002 -6.02462,-17.66309 -9.4477,-46.96465 l 15.60924,-4.1077 q 2.3277,30.53387 8.76309,49.15542 5.06615,14.10309 12.04924,22.4554 6.16154,-7.25693 10.54308,-16.5677 5.06616,-10.40616 7.80462,-23.55079 2.32769,-10.81693 2.73846,-17.93693 0.41077,-7.6677 0.5477,-7.80462 0.27384,-3.01231 0.27384,-3.14924 v -2.05384 l 15.74617,2.73846 q -2.73847,32.45079 -10.54309,51.75696 -5.88769,14.51385 -15.88308,26.42617 9.03692,7.53077 16.02001,11.50155 6.98308,3.97077 19.71693,8.76308 -3.14923,3.83385 -4.65538,6.02462 -1.36924,2.32769 -4.79232,8.76308 -12.46,-6.98308 -23.14001,-14.10308 -0.13692,-0.13693 -13.0077,-10.68001 -15.3354,14.10309 -39.70772,25.46771 -4.24462,-9.4477 -9.31078,-14.92463 z M 171.995,-499.37429 h -7.12 q -5.61385,0 -11.7754,0.82154 v -16.15694 q 5.47693,0.82154 11.91232,0.82154 h 11.77539 q 5.75078,0 10.13232,-0.68461 -0.5477,5.34 -0.5477,15.60924 v 36.55849 q 8.35232,-6.43539 13.96617,-11.7754 v 18.21078 q -8.48924,7.80463 -26.28925,20.94925 l -7.6677,-13.82924 q 3.42308,-2.73846 4.51847,-4.24462 1.09538,-1.50615 1.09538,-3.69692 z m 75.44467,-28.48002 -12.18616,9.4477 q -5.47693,-15.74617 -15.47232,-29.16464 l 12.04924,-6.84616 q 9.99539,13.28155 15.60924,26.5631 z m -52.30465,-7.80462 -10.81693,11.2277 q -3.01231,-3.83385 -9.31078,-9.72155 -6.16154,-5.88769 -10.95385,-9.4477 l 11.2277,-9.17385 q 11.91231,9.03693 19.85386,17.1154 z"
       style="font-style:normal;font-variant:normal;font-weight:600;font-stretch:normal;font-size:136.923172px;line-height:0;font-family:'Hiragino Sans GB';-inkscape-font-specification:'Hiragino Sans GB Semi-Bold';letter-spacing:10px;word-spacing:0px;fill:#000000;fill-opacity:1;stroke:none;stroke-width:1.06666672px;stroke-linecap:butt;stroke-linejoin:miter;stroke-opacity:1"
       id="path4699"
       inkscape:connector-curvature="0" />
    <path
       d="m -104.10416,-479.07338 -5.73366,46.55388 h -27.72695 l 15.23271,-124.68567 h 37.82503 q 11.467312,0 19.511549,2.48173 8.129814,2.39616 13.264433,6.67501 5.13462,4.27884 7.445198,10.18366 2.396156,5.81923 2.396156,12.66539 0,6.93174 -1.882694,13.09328 -1.797117,6.16154 -5.305773,11.38174 -3.508657,5.13462 -8.643276,9.15674 -5.049042,3.93654 -11.552893,6.50385 2.567309,1.45481 4.792311,3.50866 2.310579,2.05384 3.594234,5.13461 l 18.142321,43.901 h -25.159635 q -3.508656,0 -5.904812,-1.36923 -2.396159,-1.36923 -3.337499,-3.93654 l -13.52117,-36.88369 q -0.94134,-2.39615 -2.56731,-3.3375 -1.54038,-1.02692 -4.62115,-1.02692 z m 7.10289,-57.33658 -4.70674,38.08176 h 10.18366 q 5.99039,0 10.18366,-1.79712 4.19328,-1.8827 6.760586,-4.96347 2.652887,-3.08077 3.765388,-7.18846 1.198078,-4.1077 1.198078,-8.64328 0,-3.50866 -1.026924,-6.3327 -1.026924,-2.90961 -3.251926,-4.87789 -2.139422,-2.05384 -5.476922,-3.16634 -3.25193,-1.1125 -7.70193,-1.1125 z"
       style="font-style:italic;font-variant:normal;font-weight:900;font-stretch:normal;font-size:171.15397644px;line-height:0;font-family:Lato;-inkscape-font-specification:'Lato Heavy Italic';letter-spacing:0px;word-spacing:0px;fill:#0392cf;fill-opacity:1;stroke:none;stroke-width:1.06666672px;stroke-linecap:butt;stroke-linejoin:miter;stroke-opacity:1"
       id="path4702"
       inkscape:connector-curvature="0" />
    <path
       inkscape:connector-curvature="0"
       id="path4705"
       style="font-style:normal;font-variant:normal;font-weight:normal;font-stretch:normal;font-size:68.39743042px;line-height:0;font-family:Lato;-inkscape-font-specification:Lato;letter-spacing:0px;word-spacing:0px;fill:#000000;fill-opacity:1;stroke:none;stroke-width:1.06666684px;stroke-linecap:butt;stroke-linejoin:miter;stroke-opacity:1"
       d="m -411.15918,-405.75502 v 5.57439 h -15.834 v 43.43237 h -6.63455 v -43.43237 h -15.90241 v -5.57439 z" />
    <path
       inkscape:connector-curvature="0"
       id="path4707"
       style="font-style:normal;font-variant:normal;font-weight:normal;font-stretch:normal;font-size:68.39743042px;line-height:0;font-family:Lato;-inkscape-font-specification:Lato;letter-spacing:0px;word-spacing:0px;fill:#000000;fill-opacity:1;stroke:none;stroke-width:1.06666684px;stroke-linecap:butt;stroke-linejoin:miter;stroke-opacity:1"
       d="m -405.14046,-356.74826 v -50.37471 h 6.08738 v 20.38244 q 2.22291,-2.35972 4.92461,-3.76186 2.7017,-1.43635 6.22417,-1.43635 2.83849,0 4.99301,0.95757 2.18872,0.92336 3.62506,2.6675 1.47055,1.70993 2.22292,4.13804 0.75237,2.42811 0.75237,5.3692 v 22.05817 h -6.08737 v -22.05817 q 0,-3.93285 -1.81253,-6.08737 -1.77834,-2.18872 -5.4718,-2.18872 -2.7017,0 -5.06141,1.29955 -2.32551,1.29955 -4.30903,3.52247 v 25.51224 z" />
    <path
       inkscape:connector-curvature="0"
       id="path4709"
       style="font-style:normal;font-variant:normal;font-weight:normal;font-stretch:normal;font-size:68.39743042px;line-height:0;font-family:Lato;-inkscape-font-specification:Lato;letter-spacing:0px;word-spacing:0px;fill:#000000;fill-opacity:1;stroke:none;stroke-width:1.06666684px;stroke-linecap:butt;stroke-linejoin:miter;stroke-opacity:1"
       d="m -353.39782,-391.93874 q 3.11209,0 5.74539,1.06016 2.6333,1.02596 4.54843,3.00949 1.91512,1.94933 2.97528,4.85622 1.09436,2.87269 1.09436,6.56615 0,1.43635 -0.30779,1.91513 -0.30778,0.47878 -1.16275,0.47878 h -23.04994 q 0.0684,3.28308 0.88917,5.71119 0.82077,2.4281 2.25712,4.06964 1.43634,1.60734 3.41987,2.42811 1.98352,0.78657 4.44583,0.78657 2.29131,0 3.93285,-0.51298 1.67574,-0.54718 2.87269,-1.16276 1.19696,-0.61557 1.98353,-1.12855 0.82077,-0.54718 1.40215,-0.54718 0.75237,0 1.16275,0.58138 l 1.70994,2.22291 q -1.12856,1.36795 -2.7017,2.39391 -1.57314,0.99176 -3.38567,1.64154 -1.77834,0.64978 -3.69346,0.95756 -1.91513,0.34199 -3.79606,0.34199 -3.59087,0 -6.63455,-1.19695 -3.00949,-1.23116 -5.2324,-3.55667 -2.18872,-2.35971 -3.41988,-5.81378 -1.23115,-3.45407 -1.23115,-7.9341 0,-3.62507 1.09436,-6.77135 1.12856,-3.14628 3.21468,-5.43759 2.08612,-2.32552 5.09561,-3.62507 3.00948,-1.33375 6.77134,-1.33375 z m 0.1368,4.48003 q -4.41164,0 -6.94234,2.56491 -2.53071,2.5307 -3.14628,7.04493 h 18.84349 q 0,-2.12032 -0.58138,-3.86445 -0.58138,-1.77834 -1.70994,-3.04369 -1.12855,-1.29955 -2.77009,-1.98352 -1.60734,-0.71818 -3.69346,-0.71818 z" />
    <path
       inkscape:connector-curvature="0"
       id="path4711"
       style="font-style:normal;font-variant:normal;font-weight:normal;font-stretch:normal;font-size:68.39743042px;line-height:0;font-family:Lato;-inkscape-font-specification:Lato;letter-spacing:0px;word-spacing:0px;fill:#000000;fill-opacity:1;stroke:none;stroke-width:1.06666684px;stroke-linecap:butt;stroke-linejoin:miter;stroke-opacity:1"
       d="m -282.57365,-366.87108 q 0.54718,0 0.99177,0.44458 l 2.5991,2.8385 q -3.00949,3.48827 -7.31853,5.43759 -4.27484,1.94933 -10.32801,1.94933 -5.3008,0 -9.60984,-1.81253 -4.30904,-1.84673 -7.35272,-5.12981 -3.04369,-3.31728 -4.71942,-7.9341 -1.67574,-4.61683 -1.67574,-10.15702 0,-5.54019 1.77833,-10.15702 1.81253,-4.61683 5.06141,-7.9341 3.24888,-3.31728 7.76311,-5.12981 4.54843,-1.84673 10.02022,-1.84673 5.4034,0 9.30205,1.67574 3.93286,1.67574 6.97654,4.54843 l -2.15452,3.04368 q -0.23939,0.34199 -0.54718,0.58138 -0.30779,0.20519 -0.88916,0.20519 -0.44459,0 -0.95757,-0.30779 -0.47878,-0.34198 -1.16275,-0.82076 -0.68398,-0.47879 -1.60734,-1.02597 -0.92337,-0.54718 -2.18872,-1.02596 -1.26535,-0.47878 -2.94109,-0.78657 -1.67574,-0.34198 -3.86446,-0.34198 -3.93285,0 -7.21592,1.36794 -3.24888,1.33375 -5.60859,3.83026 -2.35972,2.49651 -3.69346,6.08737 -1.29956,3.59087 -1.29956,8.0367 0,4.58263 1.29956,8.17349 1.33374,3.59087 3.59086,6.08737 2.29131,2.46231 5.4034,3.76186 3.11208,1.29955 6.70295,1.29955 2.18871,0 3.93285,-0.23939 1.74413,-0.27359 3.21468,-0.82077 1.50474,-0.54718 2.77009,-1.36795 1.29955,-0.85496 2.59911,-2.01772 0.58137,-0.51298 1.12855,-0.51298 z" />
    <path
       inkscape:connector-curvature="0"
       id="path4713"
       style="font-style:normal;font-variant:normal;font-weight:normal;font-stretch:normal;font-size:68.39743042px;line-height:0;font-family:Lato;-inkscape-font-specification:Lato;letter-spacing:0px;word-spacing:0px;fill:#000000;fill-opacity:1;stroke:none;stroke-width:1.06666684px;stroke-linecap:butt;stroke-linejoin:miter;stroke-opacity:1"
       d="m -271.21985,-356.74826 v -50.37471 h 6.08737 v 20.38244 q 2.22292,-2.35972 4.92462,-3.76186 2.7017,-1.43635 6.22416,-1.43635 2.8385,0 4.99302,0.95757 2.18871,0.92336 3.62506,2.6675 1.47055,1.70993 2.22292,4.13804 0.75237,2.42811 0.75237,5.3692 v 22.05817 h -6.08737 v -22.05817 q 0,-3.93285 -1.81253,-6.08737 -1.77834,-2.18872 -5.4718,-2.18872 -2.7017,0 -5.06141,1.29955 -2.32551,1.29955 -4.30904,3.52247 v 25.51224 z" />
    <path
       inkscape:connector-curvature="0"
       id="path4715"
       style="font-style:normal;font-variant:normal;font-weight:normal;font-stretch:normal;font-size:68.39743042px;line-height:0;font-family:Lato;-inkscape-font-specification:Lato;letter-spacing:0px;word-spacing:0px;fill:#000000;fill-opacity:1;stroke:none;stroke-width:1.06666684px;stroke-linecap:butt;stroke-linejoin:miter;stroke-opacity:1"
       d="m -226.41954,-391.39156 v 34.6433 h -6.08737 v -34.6433 z m 1.36795,-10.87519 q 0,0.88917 -0.37619,1.67574 -0.34199,0.75237 -0.95756,1.36795 -0.58138,0.58137 -1.36795,0.92336 -0.78657,0.34199 -1.67574,0.34199 -0.88916,0 -1.67573,-0.34199 -0.75238,-0.34199 -1.36795,-0.92336 -0.58138,-0.61558 -0.92337,-1.36795 -0.34199,-0.78657 -0.34199,-1.67574 0,-0.88917 0.34199,-1.67574 0.34199,-0.82077 0.92337,-1.40214 0.61557,-0.61558 1.36795,-0.95757 0.78657,-0.34199 1.67573,-0.34199 0.88917,0 1.67574,0.34199 0.78657,0.34199 1.36795,0.95757 0.61557,0.58137 0.95756,1.40214 0.37619,0.78657 0.37619,1.67574 z" />
    <path
       inkscape:connector-curvature="0"
       id="path4717"
       style="font-style:normal;font-variant:normal;font-weight:normal;font-stretch:normal;font-size:68.39743042px;line-height:0;font-family:Lato;-inkscape-font-specification:Lato;letter-spacing:0px;word-spacing:0px;fill:#000000;fill-opacity:1;stroke:none;stroke-width:1.06666684px;stroke-linecap:butt;stroke-linejoin:miter;stroke-opacity:1"
       d="m -215.68033,-356.74826 v -34.6433 h 3.62507 q 1.29955,0 1.64153,1.26535 l 0.47879,3.76186 q 2.25711,-2.4965 5.02721,-4.03545 2.80429,-1.53894 6.46356,-1.53894 2.83849,0 4.99301,0.95757 2.18872,0.92336 3.62506,2.6675 1.47055,1.70993 2.22292,4.13804 0.75237,2.42811 0.75237,5.3692 v 22.05817 h -6.08737 v -22.05817 q 0,-3.93285 -1.81253,-6.08737 -1.77834,-2.18872 -5.4718,-2.18872 -2.7017,0 -5.06141,1.29955 -2.32551,1.29955 -4.30904,3.52247 v 25.51224 z" />
    <path
       inkscape:connector-curvature="0"
       id="path4719"
       style="font-style:normal;font-variant:normal;font-weight:normal;font-stretch:normal;font-size:68.39743042px;line-height:0;font-family:Lato;-inkscape-font-specification:Lato;letter-spacing:0px;word-spacing:0px;fill:#000000;fill-opacity:1;stroke:none;stroke-width:1.06666684px;stroke-linecap:butt;stroke-linejoin:miter;stroke-opacity:1"
       d="m -152.20752,-356.74826 h -2.7017 q -0.88917,0 -1.43635,-0.27359 -0.54718,-0.27359 -0.71817,-1.16276 l -0.68397,-3.21468 q -1.36795,1.23116 -2.6675,2.22292 -1.29955,0.95756 -2.7359,1.64154 -1.43635,0.64977 -3.07789,0.99176 -1.60733,0.34199 -3.59086,0.34199 -2.01772,0 -3.79606,-0.54718 -1.74413,-0.58138 -3.04368,-1.70994 -1.29955,-1.12855 -2.08613,-2.83849 -0.75237,-1.74413 -0.75237,-4.10385 0,-2.05192 1.12856,-3.93285 1.12856,-1.91513 3.62506,-3.38567 2.53071,-1.47055 6.60036,-2.39391 4.06964,-0.95756 9.95182,-1.09436 v -2.7017 q 0,-4.03545 -1.74413,-6.08737 -1.70994,-2.08612 -5.09561,-2.08612 -2.22292,0 -3.76186,0.58138 -1.50474,0.54718 -2.6333,1.26535 -1.09436,0.68397 -1.91513,1.26535 -0.78657,0.54718 -1.57314,0.54718 -0.61558,0 -1.09436,-0.30779 -0.44458,-0.34198 -0.71817,-0.82077 l -1.09436,-1.94932 q 2.87269,-2.7701 6.18997,-4.13805 3.31727,-1.36795 7.35272,-1.36795 2.90689,0 5.16401,0.95757 2.25711,0.95756 3.79605,2.6675 1.53895,1.70993 2.32552,4.13804 0.78657,2.42811 0.78657,5.335 z m -15.79981,-3.72766 q 1.60734,0 2.94109,-0.30779 1.33375,-0.34199 2.49651,-0.92336 1.19695,-0.61558 2.25711,-1.47055 1.09436,-0.85497 2.12032,-1.94933 v -7.21592 q -4.20644,0.13679 -7.14753,0.68397 -2.94109,0.51298 -4.78782,1.36795 -1.84673,0.85497 -2.7017,2.01772 -0.82077,1.16276 -0.82077,2.5991 0,1.36795 0.44459,2.35972 0.44458,0.99176 1.19695,1.64153 0.75237,0.61558 1.77833,0.92337 1.02597,0.27359 2.22292,0.27359 z" />
    <path
       inkscape:connector-curvature="0"
       id="path4721"
       style="font-style:normal;font-variant:normal;font-weight:normal;font-stretch:normal;font-size:68.39743042px;line-height:0;font-family:Lato;-inkscape-font-specification:Lato;letter-spacing:0px;word-spacing:0px;fill:#000000;fill-opacity:1;stroke:none;stroke-width:1.06666684px;stroke-linecap:butt;stroke-linejoin:miter;stroke-opacity:1"
       d="m -144.54781,-379.83239 h 16.89416 v 5.164 h -16.89416 z" />
    <path
       inkscape:connector-curvature="0"
       id="path4723"
       style="font-style:normal;font-variant:normal;font-weight:normal;font-stretch:normal;font-size:68.39743042px;line-height:0;font-family:Lato;-inkscape-font-specification:Lato;letter-spacing:0px;word-spacing:0px;fill:#000000;fill-opacity:1;stroke:none;stroke-width:1.06666684px;stroke-linecap:butt;stroke-linejoin:miter;stroke-opacity:1"
       d="m -110.9999,-377.19909 v 20.45083 h -6.60035 v -49.00676 h 13.85048 q 4.65102,0 8.0367,0.95756 3.38567,0.92337 5.57439,2.7017 2.22291,1.77834 3.28307,4.30904 1.06016,2.49651 1.06016,5.60859 0,2.5991 -0.82077,4.85622 -0.82076,2.25711 -2.39391,4.06965 -1.53894,1.77833 -3.79605,3.04368 -2.22292,1.26535 -5.06141,1.91513 1.23115,0.71817 2.18871,2.08612 l 14.29507,19.45907 h -5.88218 q -1.81253,0 -2.6675,-1.40215 l -12.72192,-17.50974 q -0.58138,-0.82077 -1.26536,-1.16276 -0.68397,-0.37618 -2.05192,-0.37618 z m 0,-4.82202 h 6.94234 q 2.90689,0 5.09561,-0.68398 2.22291,-0.71817 3.69346,-1.98352 1.50474,-1.29955 2.25711,-3.07789 0.75238,-1.77833 0.75238,-3.93285 0,-4.37743 -2.90689,-6.60035 -2.8727,-2.22292 -8.58388,-2.22292 h -7.25013 z" />
    <path
       inkscape:connector-curvature="0"
       id="path4725"
       style="font-style:normal;font-variant:normal;font-weight:normal;font-stretch:normal;font-size:68.39743042px;line-height:0;font-family:Lato;-inkscape-font-specification:Lato;letter-spacing:0px;word-spacing:0px;fill:#000000;fill-opacity:1;stroke:none;stroke-width:1.06666684px;stroke-linecap:butt;stroke-linejoin:miter;stroke-opacity:1"
       d="m -26.4945,-366.87108 q 0.547179,0 0.991763,0.44458 l 2.599102,2.8385 q -3.009487,3.48827 -7.318525,5.43759 -4.274839,1.94933 -10.328012,1.94933 -5.300801,0 -9.609839,-1.81253 -4.309038,-1.84673 -7.352724,-5.12981 -3.043685,-3.31728 -4.719422,-7.9341 -1.675737,-4.61683 -1.675737,-10.15702 0,-5.54019 1.778333,-10.15702 1.812532,-4.61683 5.06141,-7.9341 3.248878,-3.31728 7.763108,-5.12981 4.548429,-1.84673 10.020224,-1.84673 5.403397,0 9.30205,1.67574 3.932852,1.67574 6.976538,4.54843 l -2.154519,3.04368 q -0.239391,0.34199 -0.54718,0.58138 -0.307788,0.20519 -0.889166,0.20519 -0.444583,0 -0.957564,-0.30779 -0.478782,-0.34198 -1.162756,-0.82076 -0.683975,-0.47879 -1.60734,-1.02597 -0.923365,-0.54718 -2.188718,-1.02596 -1.265352,-0.47878 -2.941089,-0.78657 -1.675737,-0.34198 -3.864455,-0.34198 -3.932852,0 -7.215929,1.36794 -3.248878,1.33375 -5.608589,3.83026 -2.359712,2.49651 -3.693462,6.08737 -1.299551,3.59087 -1.299551,8.0367 0,4.58263 1.299551,8.17349 1.33375,3.59087 3.590865,6.08737 2.291314,2.46231 5.403397,3.76186 3.112084,1.29955 6.702949,1.29955 2.188717,0 3.932852,-0.23939 1.744134,-0.27359 3.214679,-0.82077 1.504744,-0.54718 2.770096,-1.36795 1.299551,-0.85496 2.599102,-2.01772 0.581379,-0.51298 1.128558,-0.51298 z" />
    <path
       inkscape:connector-curvature="0"
       id="path4727"
       style="font-style:normal;font-variant:normal;font-weight:normal;font-stretch:normal;font-size:68.39743042px;line-height:0;font-family:Lato;-inkscape-font-specification:Lato;letter-spacing:0px;word-spacing:0px;fill:#000000;fill-opacity:1;stroke:none;stroke-width:1.06666684px;stroke-linecap:butt;stroke-linejoin:miter;stroke-opacity:1"
       d="m -1.119212,-391.93874 q 3.796058,0 6.839743,1.26535 3.077885,1.26536 5.198205,3.59087 2.154519,2.32551 3.283077,5.64279 1.162756,3.28307 1.162756,7.35272 0,4.10385 -1.162756,7.38692 -1.128558,3.28308 -3.283077,5.60859 -2.12032,2.32552 -5.198205,3.59087 -3.043685,1.23115 -6.839743,1.23115 -3.796057,0 -6.873942,-1.23115 -3.043685,-1.26535 -5.198204,-3.59087 -2.154519,-2.32551 -3.317276,-5.60859 -1.162756,-3.28307 -1.162756,-7.38692 0,-4.06965 1.162756,-7.35272 1.162757,-3.31728 3.317276,-5.64279 2.154519,-2.32551 5.198204,-3.59087 3.077885,-1.26535 6.873942,-1.26535 z m 0,30.91564 q 5.129807,0 7.660512,-3.41987 2.530705,-3.45407 2.530705,-9.60984 0,-6.18997 -2.530705,-9.64404 -2.530705,-3.45407 -7.660512,-3.45407 -2.599102,0 -4.51423,0.88917 -1.915128,0.88916 -3.214679,2.5649 -1.265353,1.67574 -1.915129,4.13805 -0.615576,2.42811 -0.615576,5.50599 0,3.07788 0.615576,5.50599 0.649776,2.42811 1.915129,4.10385 1.299551,1.64154 3.214679,2.5307 1.915128,0.88917 4.51423,0.88917 z" />
    <path
       inkscape:connector-curvature="0"
       id="path4729"
       style="font-style:normal;font-variant:normal;font-weight:normal;font-stretch:normal;font-size:68.39743042px;line-height:0;font-family:Lato;-inkscape-font-specification:Lato;letter-spacing:0px;word-spacing:0px;fill:#000000;fill-opacity:1;stroke:none;stroke-width:1.06666684px;stroke-linecap:butt;stroke-linejoin:miter;stroke-opacity:1"
       d="m 22.888276,-356.74826 v -34.6433 h 3.625064 q 1.299551,0 1.641538,1.26535 l 0.478782,3.76186 q 2.257115,-2.4965 5.027211,-4.03545 2.804295,-1.53894 6.463558,-1.53894 2.838493,0 4.993012,0.95757 2.188718,0.92336 3.625064,2.6675 1.470545,1.70993 2.222916,4.13804 0.752372,2.42811 0.752372,5.3692 v 22.05817 h -6.087371 v -22.05817 q 0,-3.93285 -1.812532,-6.08737 -1.778333,-2.18872 -5.471795,-2.18872 -2.701698,0 -5.061409,1.29955 -2.325513,1.29955 -4.309039,3.52247 v 25.51224 z" />
    <path
       inkscape:connector-curvature="0"
       id="path4731"
       style="font-style:normal;font-variant:normal;font-weight:normal;font-stretch:normal;font-size:68.39743042px;line-height:0;font-family:Lato;-inkscape-font-specification:Lato;letter-spacing:0px;word-spacing:0px;fill:#000000;fill-opacity:1;stroke:none;stroke-width:1.06666684px;stroke-linecap:butt;stroke-linejoin:miter;stroke-opacity:1"
       d="m 62.285186,-356.74826 v -29.44509 l -3.830256,-0.44459 q -0.718173,-0.17099 -1.196955,-0.51298 -0.444584,-0.37618 -0.444584,-1.06016 v -2.4965 h 5.471795 v -3.35148 q 0,-2.97529 0.820769,-5.2666 0.854968,-2.32551 2.39391,-3.89865 1.573141,-1.60734 3.761859,-2.42811 2.188718,-0.82077 4.924615,-0.82077 2.325512,0 4.309038,0.68397 l -0.136795,3.04369 q -0.0342,0.68397 -0.581378,0.82077 -0.54718,0.13679 -1.538942,0.13679 h -1.06016 q -1.573141,0 -2.872693,0.41039 -1.265352,0.41038 -2.188717,1.33375 -0.923366,0.92336 -1.436346,2.4281 -0.478782,1.50475 -0.478782,3.72766 v 3.18049 h 10.020223 v 4.41163 h -9.815031 v 29.54769 z" />
    <path
       inkscape:connector-curvature="0"
       id="path4733"
       style="font-style:normal;font-variant:normal;font-weight:normal;font-stretch:normal;font-size:68.39743042px;line-height:0;font-family:Lato;-inkscape-font-specification:Lato;letter-spacing:0px;word-spacing:0px;fill:#000000;fill-opacity:1;stroke:none;stroke-width:1.06666684px;stroke-linecap:butt;stroke-linejoin:miter;stroke-opacity:1"
       d="m 97.681215,-391.93874 q 3.112085,0 5.745385,1.06016 2.6333,1.02596 4.54843,3.00949 1.91513,1.94933 2.97529,4.85622 1.09435,2.87269 1.09435,6.56615 0,1.43635 -0.30778,1.91513 -0.30779,0.47878 -1.16276,0.47878 H 87.524197 q 0.0684,3.28308 0.889166,5.71119 0.820769,2.4281 2.257115,4.06964 1.436346,1.60734 3.419872,2.42811 1.983525,0.78657 4.445833,0.78657 2.291317,0 3.932847,-0.51298 1.67574,-0.54718 2.8727,-1.16276 1.19695,-0.61557 1.98352,-1.12855 0.82077,-0.54718 1.40215,-0.54718 0.75237,0 1.16276,0.58138 l 1.70993,2.22291 q -1.12856,1.36795 -2.7017,2.39391 -1.57314,0.99176 -3.38567,1.64154 -1.77833,0.64978 -3.69346,0.95756 -1.915128,0.34199 -3.796058,0.34199 -3.590865,0 -6.634551,-1.19695 -3.009486,-1.23116 -5.232403,-3.55667 -2.188718,-2.35971 -3.419872,-5.81378 -1.231153,-3.45407 -1.231153,-7.9341 0,-3.62507 1.094359,-6.77135 1.128557,-3.14628 3.214679,-5.43759 2.086121,-2.32552 5.095608,-3.62507 3.009487,-1.33375 6.771346,-1.33375 z m 0.136795,4.48003 q -4.411634,0 -6.942339,2.56491 -2.530705,2.5307 -3.146282,7.04493 h 18.843491 q 0,-2.12032 -0.58138,-3.86445 -0.58138,-1.77834 -1.70993,-3.04369 -1.12856,-1.29955 -2.7701,-1.98352 -1.607338,-0.71818 -3.69346,-0.71818 z" />
    <path
       inkscape:connector-curvature="0"
       id="path4735"
       style="font-style:normal;font-variant:normal;font-weight:normal;font-stretch:normal;font-size:68.39743042px;line-height:0;font-family:Lato;-inkscape-font-specification:Lato;letter-spacing:0px;word-spacing:0px;fill:#000000;fill-opacity:1;stroke:none;stroke-width:1.06666684px;stroke-linecap:butt;stroke-linejoin:miter;stroke-opacity:1"
       d="m 119.80689,-356.74826 v -34.6433 h 3.48827 q 0.99176,0 1.36794,0.37619 0.37619,0.37618 0.51298,1.29955 l 0.41039,5.4034 q 1.77833,-3.62507 4.37743,-5.64279 2.63331,-2.05193 6.15577,-2.05193 1.43635,0 2.59911,0.34199 1.16275,0.30779 2.15451,0.88917 l -0.78657,4.54843 q -0.23939,0.85496 -1.06016,0.85496 -0.47878,0 -1.47054,-0.30778 -0.99176,-0.34199 -2.7701,-0.34199 -3.18048,0 -5.335,1.84673 -2.12032,1.84673 -3.55666,5.3692 v 22.05817 z" />
    <path
       inkscape:connector-curvature="0"
       id="path4737"
       style="font-style:normal;font-variant:normal;font-weight:normal;font-stretch:normal;font-size:68.39743042px;line-height:0;font-family:Lato;-inkscape-font-specification:Lato;letter-spacing:0px;word-spacing:0px;fill:#000000;fill-opacity:1;stroke:none;stroke-width:1.06666684px;stroke-linecap:butt;stroke-linejoin:miter;stroke-opacity:1"
       d="m 161.08576,-391.93874 q 3.11208,0 5.74538,1.06016 2.6333,1.02596 4.54843,3.00949 1.91513,1.94933 2.97529,4.85622 1.09436,2.87269 1.09436,6.56615 0,1.43635 -0.30779,1.91513 -0.30779,0.47878 -1.16276,0.47878 h -23.04993 q 0.0684,3.28308 0.88916,5.71119 0.82077,2.4281 2.25712,4.06964 1.43635,1.60734 3.41987,2.42811 1.98353,0.78657 4.44583,0.78657 2.29132,0 3.93286,-0.51298 1.67573,-0.54718 2.87269,-1.16276 1.19695,-0.61557 1.98352,-1.12855 0.82077,-0.54718 1.40215,-0.54718 0.75237,0 1.16276,0.58138 l 1.70993,2.22291 q -1.12855,1.36795 -2.7017,2.39391 -1.57314,0.99176 -3.38567,1.64154 -1.77833,0.64978 -3.69346,0.95756 -1.91513,0.34199 -3.79606,0.34199 -3.59086,0 -6.63455,-1.19695 -3.00948,-1.23116 -5.2324,-3.55667 -2.18872,-2.35971 -3.41987,-5.81378 -1.23116,-3.45407 -1.23116,-7.9341 0,-3.62507 1.09436,-6.77135 1.12856,-3.14628 3.21468,-5.43759 2.08612,-2.32552 5.09561,-3.62507 3.00949,-1.33375 6.77135,-1.33375 z m 0.13679,4.48003 q -4.41163,0 -6.94234,2.56491 -2.5307,2.5307 -3.14628,7.04493 h 18.84349 q 0,-2.12032 -0.58138,-3.86445 -0.58137,-1.77834 -1.70993,-3.04369 -1.12856,-1.29955 -2.7701,-1.98352 -1.60734,-0.71818 -3.69346,-0.71818 z" />
    <path
       inkscape:connector-curvature="0"
       id="path4739"
       style="font-style:normal;font-variant:normal;font-weight:normal;font-stretch:normal;font-size:68.39743042px;line-height:0;font-family:Lato;-inkscape-font-specification:Lato;letter-spacing:0px;word-spacing:0px;fill:#000000;fill-opacity:1;stroke:none;stroke-width:1.06666684px;stroke-linecap:butt;stroke-linejoin:miter;stroke-opacity:1"
       d="m 183.21143,-356.74826 v -34.6433 h 3.62506 q 1.29955,0 1.64154,1.26535 l 0.47878,3.76186 q 2.25712,-2.4965 5.02721,-4.03545 2.8043,-1.53894 6.46356,-1.53894 2.83849,0 4.99301,0.95757 2.18872,0.92336 3.62507,2.6675 1.47054,1.70993 2.22291,4.13804 0.75237,2.42811 0.75237,5.3692 v 22.05817 h -6.08737 v -22.05817 q 0,-3.93285 -1.81253,-6.08737 -1.77833,-2.18872 -5.47179,-2.18872 -2.7017,0 -5.06141,1.29955 -2.32552,1.29955 -4.30904,3.52247 v 25.51224 z" />
    <path
       inkscape:connector-curvature="0"
       id="path4741"
       style="font-style:normal;font-variant:normal;font-weight:normal;font-stretch:normal;font-size:68.39743042px;line-height:0;font-family:Lato;-inkscape-font-specification:Lato;letter-spacing:0px;word-spacing:0px;fill:#000000;fill-opacity:1;stroke:none;stroke-width:1.06666684px;stroke-linecap:butt;stroke-linejoin:miter;stroke-opacity:1"
       d="m 244.87173,-385.23579 q -0.27359,0.37619 -0.54718,0.58138 -0.27359,0.20519 -0.78657,0.20519 -0.51298,0 -1.12856,-0.41038 -0.58138,-0.44459 -1.50474,-0.95757 -0.92337,-0.51298 -2.25712,-0.92336 -1.29955,-0.44459 -3.21467,-0.44459 -2.53071,0 -4.48004,0.92337 -1.94932,0.88916 -3.28307,2.5991 -1.29955,1.70994 -1.98353,4.13805 -0.64977,2.4281 -0.64977,5.43759 0,3.14628 0.71817,5.60859 0.71817,2.42811 2.01772,4.10385 1.29955,1.64153 3.14628,2.5307 1.88093,0.85497 4.20645,0.85497 2.22291,0 3.65926,-0.51298 1.43635,-0.54718 2.39391,-1.19696 0.95756,-0.64977 1.57314,-1.16275 0.61558,-0.54718 1.23115,-0.54718 0.78657,0 1.16276,0.58138 l 1.70994,2.22291 q -2.25712,2.7701 -5.64279,4.06965 -3.38567,1.26535 -7.14753,1.26535 -3.24888,0 -6.05318,-1.19695 -2.77009,-1.19696 -4.82201,-3.45407 -2.05193,-2.29132 -3.24888,-5.60859 -1.16276,-3.31728 -1.16276,-7.55792 0,-3.86445 1.06016,-7.14753 1.09436,-3.28308 3.14628,-5.64279 2.08612,-2.39391 5.12981,-3.72766 3.04369,-1.33375 6.97654,-1.33375 3.62506,0 6.42936,1.19696 2.80429,1.16275 4.95881,3.31727 z" />
    <path
       inkscape:connector-curvature="0"
       id="path4743"
       style="font-style:normal;font-variant:normal;font-weight:normal;font-stretch:normal;font-size:68.39743042px;line-height:0;font-family:Lato;-inkscape-font-specification:Lato;letter-spacing:0px;word-spacing:0px;fill:#000000;fill-opacity:1;stroke:none;stroke-width:1.06666684px;stroke-linecap:butt;stroke-linejoin:miter;stroke-opacity:1"
       d="m 266.89643,-391.93874 q 3.11208,0 5.74538,1.06016 2.6333,1.02596 4.54843,3.00949 1.91513,1.94933 2.97529,4.85622 1.09436,2.87269 1.09436,6.56615 0,1.43635 -0.30779,1.91513 -0.30779,0.47878 -1.16276,0.47878 h -23.04993 q 0.0684,3.28308 0.88916,5.71119 0.82077,2.4281 2.25712,4.06964 1.43634,1.60734 3.41987,2.42811 1.98353,0.78657 4.44583,0.78657 2.29132,0 3.93286,-0.51298 1.67573,-0.54718 2.87269,-1.16276 1.19695,-0.61557 1.98352,-1.12855 0.82077,-0.54718 1.40215,-0.54718 0.75237,0 1.16276,0.58138 l 1.70993,2.22291 q -1.12856,1.36795 -2.7017,2.39391 -1.57314,0.99176 -3.38567,1.64154 -1.77833,0.64978 -3.69346,0.95756 -1.91513,0.34199 -3.79606,0.34199 -3.59086,0 -6.63455,-1.19695 -3.00949,-1.23116 -5.2324,-3.55667 -2.18872,-2.35971 -3.41987,-5.81378 -1.23116,-3.45407 -1.23116,-7.9341 0,-3.62507 1.09436,-6.77135 1.12856,-3.14628 3.21468,-5.43759 2.08612,-2.32552 5.09561,-3.62507 3.00949,-1.33375 6.77135,-1.33375 z m 0.13679,4.48003 q -4.41163,0 -6.94234,2.56491 -2.5307,2.5307 -3.14628,7.04493 h 18.84349 q 0,-2.12032 -0.58138,-3.86445 -0.58138,-1.77834 -1.70993,-3.04369 -1.12856,-1.29955 -2.7701,-1.98352 -1.60734,-0.71818 -3.69346,-0.71818 z" />
  </g>
</svg>
