<?xml version="1.0" encoding="UTF-8" standalone="no"?>
<!-- Created with Inkscape (http://www.inkscape.org/) -->

<svg
   xmlns:dc="http://purl.org/dc/elements/1.1/"
   xmlns:cc="http://creativecommons.org/ns#"
   xmlns:rdf="http://www.w3.org/1999/02/22-rdf-syntax-ns#"
   xmlns:svg="http://www.w3.org/2000/svg"
   xmlns="http://www.w3.org/2000/svg"
   xmlns:xlink="http://www.w3.org/1999/xlink"
   xmlns:sodipodi="http://sodipodi.sourceforge.net/DTD/sodipodi-0.dtd"
   xmlns:inkscape="http://www.inkscape.org/namespaces/inkscape"
   width="1310"
   height="280"
   id="svg9598"
   version="1.1"
   inkscape:version="0.91 r13725"
   sodipodi:docname="ChinaR-logo-update-map2.svg">
  <defs
     id="defs9600">
    <linearGradient
       id="linearGradient6736-8-2">
      <stop
         style="stop-color:#c2ff78;stop-opacity:1;"
         offset="0"
         id="stop6738-5-3" />
      <stop
         id="stop6748-8-7"
         offset="0.5"
         style="stop-color:#7bff00;stop-opacity:1;" />
      <stop
         style="stop-color:#00c800;stop-opacity:1;"
         offset="1"
         id="stop6740-3-8" />
    </linearGradient>
    <clipPath
       id="clip2-9-5">
      <path
         inkscape:connector-curvature="0"
         d="m 59.039063,59.039063 415.718747,0 0,372.519527 -415.718747,0 z m 0,0"
         id="path7718-4-8" />
    </clipPath>
    <linearGradient
       id="linearGradient9624">
      <stop
         style="stop-color:#c2ff78;stop-opacity:1;"
         offset="0"
         id="stop9626" />
      <stop
         id="stop9628"
         offset="0.5"
         style="stop-color:#7bff00;stop-opacity:1;" />
      <stop
         style="stop-color:#00c800;stop-opacity:1;"
         offset="1"
         id="stop9630" />
    </linearGradient>
    <linearGradient
       id="linearGradient9633">
      <stop
         style="stop-color:#c2ff78;stop-opacity:1;"
         offset="0"
         id="stop9635" />
      <stop
         id="stop9637"
         offset="0.5"
         style="stop-color:#7bff00;stop-opacity:1;" />
      <stop
         style="stop-color:#00c800;stop-opacity:1;"
         offset="1"
         id="stop9639" />
    </linearGradient>
    <linearGradient
       id="linearGradient9642">
      <stop
         style="stop-color:#c2ff78;stop-opacity:1;"
         offset="0"
         id="stop9644" />
      <stop
         id="stop9646"
         offset="0.5"
         style="stop-color:#7bff00;stop-opacity:1;" />
      <stop
         style="stop-color:#00c800;stop-opacity:1;"
         offset="1"
         id="stop9648" />
    </linearGradient>
    <linearGradient
       id="linearGradient9651">
      <stop
         style="stop-color:#c2ff78;stop-opacity:1;"
         offset="0"
         id="stop9653" />
      <stop
         id="stop9655"
         offset="0.5"
         style="stop-color:#7bff00;stop-opacity:1;" />
      <stop
         style="stop-color:#00c800;stop-opacity:1;"
         offset="1"
         id="stop9657" />
    </linearGradient>
    <linearGradient
       id="linearGradient9660">
      <stop
         style="stop-color:#c2ff78;stop-opacity:1;"
         offset="0"
         id="stop9662" />
      <stop
         id="stop9664"
         offset="0.5"
         style="stop-color:#7bff00;stop-opacity:1;" />
      <stop
         style="stop-color:#00c800;stop-opacity:1;"
         offset="1"
         id="stop9666" />
    </linearGradient>
    <linearGradient
       id="linearGradient9669">
      <stop
         style="stop-color:#c2ff78;stop-opacity:1;"
         offset="0"
         id="stop9671" />
      <stop
         id="stop9673"
         offset="0.5"
         style="stop-color:#7bff00;stop-opacity:1;" />
      <stop
         style="stop-color:#00c800;stop-opacity:1;"
         offset="1"
         id="stop9675" />
    </linearGradient>
    <linearGradient
       id="linearGradient9678">
      <stop
         style="stop-color:#c2ff78;stop-opacity:1;"
         offset="0"
         id="stop9680" />
      <stop
         id="stop9682"
         offset="0.5"
         style="stop-color:#7bff00;stop-opacity:1;" />
      <stop
         style="stop-color:#00c800;stop-opacity:1;"
         offset="1"
         id="stop9684" />
    </linearGradient>
    <linearGradient
       id="linearGradient9687">
      <stop
         style="stop-color:#c2ff78;stop-opacity:1;"
         offset="0"
         id="stop9689" />
      <stop
         id="stop9691"
         offset="0.5"
         style="stop-color:#7bff00;stop-opacity:1;" />
      <stop
         style="stop-color:#00c800;stop-opacity:1;"
         offset="1"
         id="stop9693" />
    </linearGradient>
    <linearGradient
       id="linearGradient9696">
      <stop
         style="stop-color:#c2ff78;stop-opacity:1;"
         offset="0"
         id="stop9698" />
      <stop
         id="stop9700"
         offset="0.5"
         style="stop-color:#7bff00;stop-opacity:1;" />
      <stop
         style="stop-color:#00c800;stop-opacity:1;"
         offset="1"
         id="stop9702" />
    </linearGradient>
    <linearGradient
       id="linearGradient9705">
      <stop
         style="stop-color:#c2ff78;stop-opacity:1;"
         offset="0"
         id="stop9707" />
      <stop
         id="stop9709"
         offset="0.5"
         style="stop-color:#7bff00;stop-opacity:1;" />
      <stop
         style="stop-color:#00c800;stop-opacity:1;"
         offset="1"
         id="stop9711" />
    </linearGradient>
    <linearGradient
       id="linearGradient9714">
      <stop
         style="stop-color:#c2ff78;stop-opacity:1;"
         offset="0"
         id="stop9716" />
      <stop
         id="stop9718"
         offset="0.5"
         style="stop-color:#7bff00;stop-opacity:1;" />
      <stop
         style="stop-color:#00c800;stop-opacity:1;"
         offset="1"
         id="stop9720" />
    </linearGradient>
    <linearGradient
       id="linearGradient9723">
      <stop
         style="stop-color:#c2ff78;stop-opacity:1;"
         offset="0"
         id="stop9725" />
      <stop
         id="stop9727"
         offset="0.5"
         style="stop-color:#7bff00;stop-opacity:1;" />
      <stop
         style="stop-color:#00c800;stop-opacity:1;"
         offset="1"
         id="stop9729" />
    </linearGradient>
    <linearGradient
       id="linearGradient9732">
      <stop
         style="stop-color:#c2ff78;stop-opacity:1;"
         offset="0"
         id="stop9734" />
      <stop
         id="stop9736"
         offset="0.5"
         style="stop-color:#7bff00;stop-opacity:1;" />
      <stop
         style="stop-color:#00c800;stop-opacity:1;"
         offset="1"
         id="stop9738" />
    </linearGradient>
    <linearGradient
       id="linearGradient9741">
      <stop
         style="stop-color:#c2ff78;stop-opacity:1;"
         offset="0"
         id="stop9743" />
      <stop
         id="stop9745"
         offset="0.5"
         style="stop-color:#7bff00;stop-opacity:1;" />
      <stop
         style="stop-color:#00c800;stop-opacity:1;"
         offset="1"
         id="stop9747" />
    </linearGradient>
    <linearGradient
       id="linearGradient9750">
      <stop
         style="stop-color:#c2ff78;stop-opacity:1;"
         offset="0"
         id="stop9752" />
      <stop
         id="stop9754"
         offset="0.5"
         style="stop-color:#7bff00;stop-opacity:1;" />
      <stop
         style="stop-color:#00c800;stop-opacity:1;"
         offset="1"
         id="stop9756" />
    </linearGradient>
    <linearGradient
       id="linearGradient9759">
      <stop
         style="stop-color:#c2ff78;stop-opacity:1;"
         offset="0"
         id="stop9761" />
      <stop
         id="stop9763"
         offset="0.5"
         style="stop-color:#7bff00;stop-opacity:1;" />
      <stop
         style="stop-color:#00c800;stop-opacity:1;"
         offset="1"
         id="stop9765" />
    </linearGradient>
    <linearGradient
       id="linearGradient9768">
      <stop
         style="stop-color:#c2ff78;stop-opacity:1;"
         offset="0"
         id="stop9770" />
      <stop
         id="stop9772"
         offset="0.5"
         style="stop-color:#7bff00;stop-opacity:1;" />
      <stop
         style="stop-color:#00c800;stop-opacity:1;"
         offset="1"
         id="stop9774" />
    </linearGradient>
    <linearGradient
       id="linearGradient9777">
      <stop
         style="stop-color:#c2ff78;stop-opacity:1;"
         offset="0"
         id="stop9779" />
      <stop
         id="stop9781"
         offset="0.5"
         style="stop-color:#7bff00;stop-opacity:1;" />
      <stop
         style="stop-color:#00c800;stop-opacity:1;"
         offset="1"
         id="stop9783" />
    </linearGradient>
    <linearGradient
       id="linearGradient9786">
      <stop
         style="stop-color:#c2ff78;stop-opacity:1;"
         offset="0"
         id="stop9788" />
      <stop
         id="stop9790"
         offset="0.5"
         style="stop-color:#7bff00;stop-opacity:1;" />
      <stop
         style="stop-color:#00c800;stop-opacity:1;"
         offset="1"
         id="stop9792" />
    </linearGradient>
    <linearGradient
       id="linearGradient9795">
      <stop
         style="stop-color:#c2ff78;stop-opacity:1;"
         offset="0"
         id="stop9797" />
      <stop
         id="stop9799"
         offset="0.5"
         style="stop-color:#7bff00;stop-opacity:1;" />
      <stop
         style="stop-color:#00c800;stop-opacity:1;"
         offset="1"
         id="stop9801" />
    </linearGradient>
    <linearGradient
       id="linearGradient9804">
      <stop
         style="stop-color:#c2ff78;stop-opacity:1;"
         offset="0"
         id="stop9806" />
      <stop
         id="stop9808"
         offset="0.5"
         style="stop-color:#7bff00;stop-opacity:1;" />
      <stop
         style="stop-color:#00c800;stop-opacity:1;"
         offset="1"
         id="stop9810" />
    </linearGradient>
    <linearGradient
       id="linearGradient9813">
      <stop
         style="stop-color:#c2ff78;stop-opacity:1;"
         offset="0"
         id="stop9815" />
      <stop
         id="stop9817"
         offset="0.5"
         style="stop-color:#7bff00;stop-opacity:1;" />
      <stop
         style="stop-color:#00c800;stop-opacity:1;"
         offset="1"
         id="stop9819" />
    </linearGradient>
    <linearGradient
       id="linearGradient9822">
      <stop
         style="stop-color:#c2ff78;stop-opacity:1;"
         offset="0"
         id="stop9824" />
      <stop
         id="stop9826"
         offset="0.5"
         style="stop-color:#7bff00;stop-opacity:1;" />
      <stop
         style="stop-color:#00c800;stop-opacity:1;"
         offset="1"
         id="stop9828" />
    </linearGradient>
    <linearGradient
       id="linearGradient9831">
      <stop
         style="stop-color:#c2ff78;stop-opacity:1;"
         offset="0"
         id="stop9833" />
      <stop
         id="stop9835"
         offset="0.5"
         style="stop-color:#7bff00;stop-opacity:1;" />
      <stop
         style="stop-color:#00c800;stop-opacity:1;"
         offset="1"
         id="stop9837" />
    </linearGradient>
    <linearGradient
       id="linearGradient9840">
      <stop
         style="stop-color:#c2ff78;stop-opacity:1;"
         offset="0"
         id="stop9842" />
      <stop
         id="stop9844"
         offset="0.5"
         style="stop-color:#7bff00;stop-opacity:1;" />
      <stop
         style="stop-color:#00c800;stop-opacity:1;"
         offset="1"
         id="stop9846" />
    </linearGradient>
    <linearGradient
       id="linearGradient9849">
      <stop
         style="stop-color:#c2ff78;stop-opacity:1;"
         offset="0"
         id="stop9851" />
      <stop
         id="stop9853"
         offset="0.5"
         style="stop-color:#7bff00;stop-opacity:1;" />
      <stop
         style="stop-color:#00c800;stop-opacity:1;"
         offset="1"
         id="stop9855" />
    </linearGradient>
    <linearGradient
       id="linearGradient9858">
      <stop
         style="stop-color:#c2ff78;stop-opacity:1;"
         offset="0"
         id="stop9860" />
      <stop
         id="stop9862"
         offset="0.5"
         style="stop-color:#7bff00;stop-opacity:1;" />
      <stop
         style="stop-color:#00c800;stop-opacity:1;"
         offset="1"
         id="stop9864" />
    </linearGradient>
    <linearGradient
       id="linearGradient9867">
      <stop
         style="stop-color:#c2ff78;stop-opacity:1;"
         offset="0"
         id="stop9869" />
      <stop
         id="stop9871"
         offset="0.5"
         style="stop-color:#7bff00;stop-opacity:1;" />
      <stop
         style="stop-color:#00c800;stop-opacity:1;"
         offset="1"
         id="stop9873" />
    </linearGradient>
    <linearGradient
       id="linearGradient9876">
      <stop
         style="stop-color:#c2ff78;stop-opacity:1;"
         offset="0"
         id="stop9878" />
      <stop
         id="stop9880"
         offset="0.5"
         style="stop-color:#7bff00;stop-opacity:1;" />
      <stop
         style="stop-color:#00c800;stop-opacity:1;"
         offset="1"
         id="stop9882" />
    </linearGradient>
    <linearGradient
       id="linearGradient9885">
      <stop
         style="stop-color:#c2ff78;stop-opacity:1;"
         offset="0"
         id="stop9887" />
      <stop
         id="stop9889"
         offset="0.5"
         style="stop-color:#7bff00;stop-opacity:1;" />
      <stop
         style="stop-color:#00c800;stop-opacity:1;"
         offset="1"
         id="stop9891" />
    </linearGradient>
    <linearGradient
       id="linearGradient9894">
      <stop
         style="stop-color:#c2ff78;stop-opacity:1;"
         offset="0"
         id="stop9896" />
      <stop
         id="stop9898"
         offset="0.5"
         style="stop-color:#7bff00;stop-opacity:1;" />
      <stop
         style="stop-color:#00c800;stop-opacity:1;"
         offset="1"
         id="stop9900" />
    </linearGradient>
    <linearGradient
       id="linearGradient9903">
      <stop
         style="stop-color:#c2ff78;stop-opacity:1;"
         offset="0"
         id="stop9905" />
      <stop
         id="stop9907"
         offset="0.5"
         style="stop-color:#7bff00;stop-opacity:1;" />
      <stop
         style="stop-color:#00c800;stop-opacity:1;"
         offset="1"
         id="stop9909" />
    </linearGradient>
    <linearGradient
       id="linearGradient9912">
      <stop
         style="stop-color:#c2ff78;stop-opacity:1;"
         offset="0"
         id="stop9914" />
      <stop
         id="stop9916"
         offset="0.5"
         style="stop-color:#7bff00;stop-opacity:1;" />
      <stop
         style="stop-color:#00c800;stop-opacity:1;"
         offset="1"
         id="stop9918" />
    </linearGradient>
    <linearGradient
       id="linearGradient9921">
      <stop
         style="stop-color:#c2ff78;stop-opacity:1;"
         offset="0"
         id="stop9923" />
      <stop
         id="stop9925"
         offset="0.5"
         style="stop-color:#7bff00;stop-opacity:1;" />
      <stop
         style="stop-color:#00c800;stop-opacity:1;"
         offset="1"
         id="stop9927" />
    </linearGradient>
    <linearGradient
       id="linearGradient9930">
      <stop
         style="stop-color:#c2ff78;stop-opacity:1;"
         offset="0"
         id="stop9932" />
      <stop
         id="stop9934"
         offset="0.5"
         style="stop-color:#7bff00;stop-opacity:1;" />
      <stop
         style="stop-color:#00c800;stop-opacity:1;"
         offset="1"
         id="stop9936" />
    </linearGradient>
    <linearGradient
       id="linearGradient9939">
      <stop
         style="stop-color:#c2ff78;stop-opacity:1;"
         offset="0"
         id="stop9941" />
      <stop
         id="stop9943"
         offset="0.5"
         style="stop-color:#7bff00;stop-opacity:1;" />
      <stop
         style="stop-color:#00c800;stop-opacity:1;"
         offset="1"
         id="stop9945" />
    </linearGradient>
    <linearGradient
       id="linearGradient9948">
      <stop
         style="stop-color:#c2ff78;stop-opacity:1;"
         offset="0"
         id="stop9950" />
      <stop
         id="stop9952"
         offset="0.5"
         style="stop-color:#7bff00;stop-opacity:1;" />
      <stop
         style="stop-color:#00c800;stop-opacity:1;"
         offset="1"
         id="stop9954" />
    </linearGradient>
    <linearGradient
       id="linearGradient9957">
      <stop
         style="stop-color:#c2ff78;stop-opacity:1;"
         offset="0"
         id="stop9959" />
      <stop
         id="stop9961"
         offset="0.5"
         style="stop-color:#7bff00;stop-opacity:1;" />
      <stop
         style="stop-color:#00c800;stop-opacity:1;"
         offset="1"
         id="stop9963" />
    </linearGradient>
    <linearGradient
       id="linearGradient9966">
      <stop
         style="stop-color:#c2ff78;stop-opacity:1;"
         offset="0"
         id="stop9968" />
      <stop
         id="stop9970"
         offset="0.5"
         style="stop-color:#7bff00;stop-opacity:1;" />
      <stop
         style="stop-color:#00c800;stop-opacity:1;"
         offset="1"
         id="stop9972" />
    </linearGradient>
    <linearGradient
       id="linearGradient9975">
      <stop
         style="stop-color:#c2ff78;stop-opacity:1;"
         offset="0"
         id="stop9977" />
      <stop
         id="stop9979"
         offset="0.5"
         style="stop-color:#7bff00;stop-opacity:1;" />
      <stop
         style="stop-color:#00c800;stop-opacity:1;"
         offset="1"
         id="stop9981" />
    </linearGradient>
    <linearGradient
       id="linearGradient9984">
      <stop
         style="stop-color:#c2ff78;stop-opacity:1;"
         offset="0"
         id="stop9986" />
      <stop
         id="stop9988"
         offset="0.5"
         style="stop-color:#7bff00;stop-opacity:1;" />
      <stop
         style="stop-color:#00c800;stop-opacity:1;"
         offset="1"
         id="stop9990" />
    </linearGradient>
    <radialGradient
       inkscape:collect="always"
       xlink:href="#linearGradient5317-2-2-8-6-5-8"
       id="radialGradient9460"
       gradientUnits="userSpaceOnUse"
       gradientTransform="matrix(1.7424276,0,0,1.1700138,2423.2243,2653.5271)"
       cx="36.219742"
       cy="388.79074"
       fx="36.219742"
       fy="388.79074"
       r="320" />
    <linearGradient
       id="linearGradient5317-2-2-8-6-5-8">
      <stop
         style="stop-color:#000000;stop-opacity:1;"
         offset="0"
         id="stop5319-3-7-6-6-4-6" />
      <stop
         id="stop5325-2-7-5-1-0-7"
         offset="0.67000002"
         style="stop-color:#5a5a5a;stop-opacity:1;" />
      <stop
         style="stop-color:#bebebe;stop-opacity:1;"
         offset="0.80000001"
         id="stop5327-2-9-0-8-3-0" />
      <stop
         id="stop5329-1-3-9-4-4-8"
         offset="0.85000002"
         style="stop-color:#b4b4b4;stop-opacity:1;" />
      <stop
         style="stop-color:#969696;stop-opacity:1;"
         offset="0.89999998"
         id="stop5333-6-1-0-9-1-1" />
      <stop
         style="stop-color:#787878;stop-opacity:1;"
         offset="1"
         id="stop5321-8-9-0-6-2-8" />
    </linearGradient>
    <linearGradient
       inkscape:collect="always"
       xlink:href="#linearGradient5211-5-2-6-1-7-9-0"
       id="linearGradient9457"
       gradientUnits="userSpaceOnUse"
       gradientTransform="matrix(1.8112653,0,0,1.8112653,1910.3333,2554.2257)"
       x1="353.76395"
       y1="601.97852"
       x2="353.76395"
       y2="247.32887" />
    <linearGradient
       id="linearGradient5211-5-2-6-1-7-9-0">
      <stop
         style="stop-color:#325aff;stop-opacity:1;"
         offset="0"
         id="stop5235-51-7-5-3-8-82-3" />
      <stop
         style="stop-color:#b4deee;stop-opacity:1;"
         offset="1"
         id="stop5215-7-6-0-8-8-2-6" />
    </linearGradient>
    <linearGradient
       inkscape:collect="always"
       xlink:href="#linearGradient5211-5-2-6-1-7-9-0"
       id="linearGradient10004"
       gradientUnits="userSpaceOnUse"
       gradientTransform="matrix(1.8112653,0,0,1.8112653,1910.3333,2554.2257)"
       x1="353.76395"
       y1="601.97852"
       x2="353.76395"
       y2="247.32887" />
    <linearGradient
       id="linearGradient10006">
      <stop
         style="stop-color:#325aff;stop-opacity:1;"
         offset="0"
         id="stop10008" />
      <stop
         style="stop-color:#b4deee;stop-opacity:1;"
         offset="1"
         id="stop10010" />
    </linearGradient>
    <linearGradient
       inkscape:collect="always"
       xlink:href="#linearGradient6736-8-2"
       id="linearGradient14885"
       x1="-334.33841"
       y1="76.653877"
       x2="-336.00586"
       y2="409.33115"
       gradientUnits="userSpaceOnUse" />
    <linearGradient
       inkscape:collect="always"
       xlink:href="#linearGradient6736-8-2"
       id="linearGradient4342"
       gradientUnits="userSpaceOnUse"
       x1="-334.33841"
       y1="76.653877"
       x2="-336.00586"
       y2="409.33115" />
    <linearGradient
       inkscape:collect="always"
       xlink:href="#linearGradient6736-8-2"
       id="linearGradient4344"
       gradientUnits="userSpaceOnUse"
       x1="-334.33841"
       y1="76.653877"
       x2="-336.00586"
       y2="409.33115" />
    <linearGradient
       inkscape:collect="always"
       xlink:href="#linearGradient6736-8-2"
       id="linearGradient4346"
       gradientUnits="userSpaceOnUse"
       x1="-334.33841"
       y1="76.653877"
       x2="-336.00586"
       y2="409.33115" />
  </defs>
  <sodipodi:namedview
     id="base"
     pagecolor="#ffffff"
     bordercolor="#666666"
     borderopacity="1.0"
     inkscape:pageopacity="0.0"
     inkscape:pageshadow="2"
     inkscape:zoom="0.35"
     inkscape:cx="701.29885"
     inkscape:cy="43.843458"
     inkscape:document-units="px"
     inkscape:current-layer="layer1"
     showgrid="false"
     fit-margin-top="0"
     fit-margin-left="0"
     fit-margin-right="0"
     fit-margin-bottom="0"
     inkscape:window-width="1920"
     inkscape:window-height="1022"
     inkscape:window-x="0"
     inkscape:window-y="27"
     inkscape:window-maximized="1" />
  <metadata
     id="metadata9603">
    <rdf:RDF>
      <cc:Work
         rdf:about="">
        <dc:format>image/svg+xml</dc:format>
        <dc:type
           rdf:resource="http://purl.org/dc/dcmitype/StillImage" />
        <dc:title></dc:title>
      </cc:Work>
    </rdf:RDF>
  </metadata>
  <g
     inkscape:label="Layer 1"
     inkscape:groupmode="layer"
     id="layer1"
     transform="translate(879.49349,575.30098)">
    <g
       id="g4369"
       transform="translate(8.1737989,-9.2660079)">
      <g
         transform="matrix(0.62037449,0,0,0.62037449,-911.53548,-603.26313)"
         id="g4332">
        <g
           id="g14818"
           transform="matrix(1.2499708,0,0,1.2499708,792.17476,-52.460676)"
           style="opacity:1;fill:url(#linearGradient14885);fill-opacity:1">
          <path
             transform="translate(31.943168,64.083564)"
             inkscape:connector-curvature="0"
             id="path14812"
             d="m -316.65695,355.87137 c -0.98318,-0.24167 -1.64141,-0.82575 -1.38965,-1.23311 0.11529,-0.18655 -0.0206,-0.6103 -0.30211,-0.94168 -0.56516,-0.66541 -1.57369,-4.57806 -1.39807,-5.42392 0.0612,-0.29464 0.43638,-1.19488 0.83377,-2.00053 l 0.72254,-1.46481 -0.92967,-0.92967 c -0.51132,-0.51132 -0.9361,-0.73608 -0.94397,-0.49947 -0.008,0.2366 -0.28198,-0.0519 -0.60916,-0.64124 l -0.59486,-1.07142 -0.19611,1.07142 c -0.15946,0.87124 -0.39598,1.09325 -1.26583,1.1882 -0.58836,0.0642 -1.22242,0.26512 -1.40902,0.44643 -0.45684,0.44387 -1.00912,0.42067 -0.73017,-0.0307 0.33037,-0.53455 -0.15745,-1.78252 -0.69677,-1.78252 -0.25744,0 -0.72168,-0.3616 -1.03162,-0.80357 -0.47091,-0.67148 -0.62096,-0.71831 -0.91286,-0.28491 -0.19212,0.28527 -0.27007,0.64687 -0.17323,0.80357 0.29217,0.47274 -0.23894,0.3202 -0.78443,-0.22529 -0.28062,-0.28061 -0.51021,-0.6824 -0.51021,-0.89286 0,-0.21046 -0.3795,-0.38265 -0.84333,-0.38265 -0.70697,0 -0.81573,0.14437 -0.67265,0.89286 0.10459,0.54712 0.006,0.89285 -0.25361,0.89285 -0.23335,0 -0.66536,0.24107 -0.96,0.53572 -0.72704,0.72704 -1.84984,0.67313 -3.49976,-0.16805 -1.12919,-0.57569 -1.6466,-0.64357 -2.84337,-0.37302 -1.41647,0.32022 -1.5141,0.28153 -3.07014,-1.21659 -0.88392,-0.85102 -2.03316,-1.64651 -2.55386,-1.76775 -0.80857,-0.18825 -1.05747,-0.58501 -1.70558,-2.7188 l -0.75886,-2.49837 0.72548,-1.42205 0.72548,-1.42206 -0.98418,-0.49832 c -0.54131,-0.27407 -2.02883,-0.58222 -3.30562,-0.68477 -1.90525,-0.15303 -2.84287,-0.48171 -5.23005,-1.83334 -1.59974,-0.90579 -3.04448,-1.64688 -3.21053,-1.64688 -1.0246,0 -3.33537,1.34107 -3.51006,2.03708 -0.10939,0.43584 -0.96078,1.3742 -1.89198,2.08523 -1.44051,1.09993 -1.90621,1.27018 -3.12166,1.14122 -1.20181,-0.12752 -1.55052,-0.005 -2.19677,0.77267 -0.74769,0.89959 -0.78738,0.90689 -1.48723,0.27353 -0.39547,-0.3579 -1.01407,-0.61359 -1.37466,-0.5682 -0.3606,0.0454 -0.94647,-0.0434 -1.30195,-0.19732 -0.4622,-0.20013 -0.92372,-0.0141 -1.62006,0.65305 -1.57394,1.50792 -2.96598,1.58762 -4.75466,0.27221 l -1.51472,-1.11394 -1.08926,1.05033 c -1.38028,1.33094 -2.65195,1.80842 -4.81638,1.80842 l -1.71634,0 -0.23473,2.07478 c -0.18447,1.6305 -0.0888,2.41438 0.44684,3.66072 0.37487,0.87226 0.7817,2.50266 0.90408,3.6231 l 0.2225,2.03716 -1.18589,0.22248 c -0.65225,0.12236 -1.7233,0.16992 -2.38012,0.10569 -1.0992,-0.10749 -1.24667,-0.27307 -1.85342,-2.08107 -0.36256,-1.08036 -0.73914,-2.18006 -0.83684,-2.44378 -0.13648,-0.36839 -0.529,-0.2748 -1.69402,0.40394 -3.96513,2.31009 -7.42052,1.12376 -7.32171,-2.51373 0.0173,-0.63839 -0.0456,-1.23783 -0.13983,-1.33207 -0.0942,-0.0942 -1.58206,-0.2798 -3.30625,-0.41233 -3.13023,-0.24061 -3.13464,-0.24234 -2.97324,-1.16793 0.33534,-1.923 1.07996,-4.53231 1.55422,-5.44635 0.27053,-0.52137 0.49186,-1.36512 0.49186,-1.875 0,-0.73496 -0.17389,-0.92704 -0.83927,-0.92704 -1.04293,0 -3.80358,-1.95391 -3.80358,-2.69207 0,-0.29961 -0.32382,-1.50597 -0.71959,-2.68081 -0.65792,-1.953 -0.67222,-2.20836 -0.16681,-2.97972 0.52144,-0.79581 0.50655,-0.85603 -0.26255,-1.06207 -1.49257,-0.39986 -5.65498,-0.23691 -6.63665,0.2598 -0.53042,0.26839 -1.56868,0.5974 -2.30723,0.73114 l -1.34283,0.24315 0.77358,-1.59227 c 0.73952,-1.52215 0.74754,-1.64713 0.18211,-2.83867 -0.76126,-1.60425 -0.74483,-2.00061 0.12111,-2.92237 0.39192,-0.41717 0.89795,-1.71324 1.12453,-2.88016 0.35505,-1.82861 0.63894,-2.3291 2.05528,-3.62351 0.90383,-0.82602 1.8401,-1.50906 2.08059,-1.51786 0.24049,-0.009 0.68658,-0.49815 0.99131,-1.08743 0.30474,-0.58929 0.791,-1.07143 1.0806,-1.07143 0.38681,0 0.52655,-0.43122 0.52655,-1.62488 0,-0.89368 0.26677,-2.13922 0.59282,-2.76786 0.53637,-1.03413 0.55069,-1.68691 0.15037,-6.85465 -0.24335,-3.14141 -0.60735,-5.91036 -0.80889,-6.1532 -0.25863,-0.31163 -0.56197,-0.3369 -1.03096,-0.0859 -0.74211,0.39716 -0.99174,0.026 -2.43785,-3.62448 -0.5864,-1.4803 -1.30514,-2.4453 -2.75092,-3.6935 -1.15183,-0.99442 -2.17093,-1.60762 -2.47672,-1.49028 -0.55815,0.21418 -2.15028,3.38113 -2.4605,4.89424 -0.10974,0.53531 -0.58208,1.10011 -1.12805,1.34887 -0.8344,0.38018 -1.19613,0.2843 -3.24018,-0.8588 -1.26551,-0.70771 -3.43161,-1.67132 -4.81357,-2.14135 l -2.51263,-0.85461 -2.73789,1.37019 c -1.50584,0.7536 -4.5861,2.22123 -6.84503,3.2614 -3.51198,1.61716 -4.3844,2.19463 -6.02041,3.98504 -1.05229,1.1516 -2.59006,2.55948 -3.41726,3.12861 -1.46933,1.01092 -1.62326,1.03691 -6.67653,1.12717 -2.84488,0.0508 -5.36515,-0.0267 -5.60059,-0.17217 -0.23544,-0.14551 -0.42807,-0.95921 -0.42807,-1.80823 0,-1.32499 -0.16606,-1.67034 -1.17219,-2.43775 -0.64471,-0.49174 -1.48601,-0.95452 -1.86957,-1.02838 -0.48741,-0.0939 -0.76122,-0.52711 -0.90945,-1.439 -0.11664,-0.71759 -0.48439,-1.72032 -0.81723,-2.2283 -0.55272,-0.84355 -0.81574,-0.9236 -3.03467,-0.9236 -1.6719,0 -3.22643,-0.27842 -4.98506,-0.89286 -1.94494,-0.67951 -3.27453,-0.89285 -5.56459,-0.89285 l -3.00904,0 -1.9992,2.94642 c -1.37075,2.02022 -1.99872,3.29574 -1.99767,4.05762 0.001,0.98301 -0.0981,1.09214 -0.86228,0.94606 -0.80527,-0.15393 -0.88045,-0.36507 -1.10962,-3.1162 -0.33947,-4.07523 -0.2934,-4.03124 -3.44869,-3.29321 -1.43748,0.33622 -3.25645,0.61319 -4.04217,0.61547 -0.78571,0.002 -2.13366,0.1667 -2.99543,0.36538 -1.30758,0.30145 -1.95324,0.23264 -3.90171,-0.41577 -1.40875,-0.4688 -3.3371,-0.79549 -4.86171,-0.82365 -1.38977,-0.0257 -2.88847,-0.24994 -3.33043,-0.49838 -0.69879,-0.39283 -0.80358,-0.37054 -0.80358,0.17091 0,0.45852 -0.40007,0.23409 -1.51785,-0.85148 -1.29082,-1.25363 -1.81688,-1.51028 -3.51695,-1.71585 -1.92787,-0.23312 -2.02621,-0.29755 -2.7604,-1.80872 -0.75687,-1.55788 -0.77021,-1.56576 -2.29536,-1.35672 -1.46859,0.20129 -1.60991,0.13494 -3.31104,-1.55446 -0.97733,-0.9706 -2.41982,-2.5229 -3.20554,-3.44957 l -1.42857,-1.68484 -1.77744,0.54435 c -1.57527,0.48243 -1.8114,0.48364 -2.07613,0.0106 -0.27846,-0.49756 -10.61069,-8.52568 -12.70858,-9.87452 -0.73358,-0.47166 -1.40673,-0.56043 -3.00165,-0.39582 -1.86574,0.19257 -2.14882,0.33842 -3.05905,1.57614 l -1.00305,1.36393 -1.7193,-1.74555 c -0.94562,-0.96006 -2.12587,-1.8476 -2.62277,-1.97232 -0.4969,-0.12471 -2.24918,-1.02161 -3.89395,-1.9931 -4.88249,-2.88387 -6.99854,-3.85196 -8.00081,-3.66036 -0.75324,0.14399 -1.16258,-0.12721 -2.34307,-1.55236 -1.29845,-1.56757 -1.401,-1.83678 -1.11183,-2.91883 0.37441,-1.40101 -0.40513,-4.15025 -1.73617,-6.12306 -0.9901,-1.46749 -1.14309,-3.74186 -0.27413,-4.07531 0.93433,-0.35854 1.57793,-0.2463 1.57793,0.2752 0,1.05093 0.98076,1.41194 2.60236,0.95792 l 1.5261,-0.42728 -0.3678,-3.45774 c -0.34318,-3.22624 -0.4722,-3.60996 -1.92702,-5.7312 -2.14012,-3.12045 -2.24825,-4.91569 -0.43127,-7.16012 0.70191,-0.86704 1.11549,-1.63337 0.91906,-1.70296 -0.19643,-0.0696 -1.78913,-0.97056 -3.53933,-2.00215 l -3.18218,-1.87561 -0.6051,-2.9468 c -0.3328,-1.62074 -0.69883,-3.04053 -0.81339,-3.1551 -0.27181,-0.2718 -5.16943,-1.20427 -6.3281,-1.20481 -0.49317,-2.3e-4 -2.01987,-0.75392 -3.39266,-1.67485 -1.96767,-1.32001 -2.88384,-1.7066 -4.32828,-1.82639 -1.67268,-0.13871 -1.89539,-0.26506 -2.55678,-1.45056 -0.39846,-0.71424 -0.83967,-2.23549 -0.98046,-3.38055 -0.14078,-1.14506 -0.43675,-2.14159 -0.6577,-2.21451 -0.22096,-0.0729 -1.09556,-0.31033 -1.94357,-0.52758 -1.16803,-0.29923 -1.71774,-0.69315 -2.26742,-1.62477 -0.66813,-1.13242 -0.86253,-1.2298 -2.45495,-1.2298 -0.95114,0 -1.81742,-0.1425 -1.92506,-0.31666 -0.10764,-0.17416 -0.77178,-0.42473 -1.47587,-0.55681 -1.0632,-0.19946 -1.20777,-0.32738 -0.85307,-0.75477 0.2349,-0.28304 0.85949,-0.51462 1.38797,-0.51462 0.60135,0 1.3448,-0.40072 1.98693,-1.07096 l 1.02604,-1.07096 -0.65104,-1.33975 c -1.07251,-2.20708 -1.97606,-5.52027 -1.97897,-7.2566 l -0.003,-1.63112 -2.76785,-0.67103 c -1.52232,-0.36906 -3.41138,-0.63573 -4.19789,-0.5926 -1.21796,0.0668 -1.51803,-0.0666 -2.02336,-0.89944 -0.56131,-0.92508 -0.55502,-1.03165 0.11666,-1.97493 l 0.70999,-0.99709 -1.29666,-1.51484 -1.29665,-1.51485 0.85486,-0.71505 c 0.47017,-0.39329 1.20579,-1.59899 1.63471,-2.67935 0.72659,-1.83011 0.95626,-2.05958 3.36231,-3.3594 1.42035,-0.76731 3.46638,-1.99846 4.54674,-2.7359 1.16395,-0.7945 2.61911,-1.44347 3.57143,-1.59279 0.88393,-0.1386 1.89316,-0.40226 2.24275,-0.58591 0.52399,-0.27528 0.72822,-0.11223 1.16311,0.9286 l 0.52751,1.26252 2.22974,-0.19807 c 1.22636,-0.10895 2.9305,-0.44785 3.78697,-0.75314 1.33206,-0.4748 1.67888,-0.81971 2.39859,-2.38548 1.32742,-2.88783 1.56822,-3.08043 3.85142,-3.08043 1.97821,0 2.0142,-0.0183 2.0142,-1.02191 0,-0.9334 0.2313,-1.11901 2.67042,-2.14286 2.1415,-0.89892 3.17044,-1.12094 5.19494,-1.12094 2.27037,0 2.87342,-0.16744 5.99029,-1.66317 5.91452,-2.83828 10.01279,-5.24888 10.22681,-6.01541 0.10968,-0.39285 0.30372,-1.7991 0.43119,-3.125 0.12748,-1.32589 0.3563,-2.41071 0.50849,-2.41071 0.15219,0 0.93337,-0.63092 1.73596,-1.40204 1.69765,-1.6311 1.96083,-3.18947 0.93937,-5.56225 -0.33824,-0.78571 -1.00363,-3.50491 -1.47865,-6.04266 -0.47502,-2.53775 -0.9034,-4.64745 -0.95196,-4.68824 -0.0486,-0.0408 -0.78466,-0.4254 -1.63577,-0.85471 -1.08442,-0.54698 -1.48519,-0.94291 -1.33929,-1.32311 0.11451,-0.2984 0.2082,-0.60976 0.2082,-0.69191 0,-0.0821 0.3422,-0.14937 0.76045,-0.14937 0.41825,0 3.48588,-0.72321 6.81696,-1.60714 3.33108,-0.88393 6.28992,-1.60714 6.5752,-1.60714 0.28529,0 1.14875,0.32143 1.91881,0.71428 1.17416,0.59901 4.64286,1.03279 4.64286,0.58062 0,-0.0735 -0.23362,-0.79582 -0.51915,-1.6051 -1.04064,-2.94948 -0.84881,-4.11454 1.56602,-9.51123 1.23053,-2.75 2.50285,-5.60104 2.82737,-6.335653 0.49955,-1.1308 0.76145,-1.336211 1.7076,-1.339286 0.61466,-0.0021 2.04449,0.420732 3.17742,0.939403 l 2.05986,0.943036 6.4403,-0.254221 c 5.41184,-0.213622 6.66458,-0.368629 7.84467,-0.970668 l 1.40436,-0.71645 -0.25338,-3.097368 c -0.13936,-1.70355 -0.27204,-3.177721 -0.29485,-3.275936 -0.0228,-0.09821 0.25866,-1.266532 0.62548,-2.59626 0.51225,-1.856897 0.84061,-2.459361 1.41563,-2.59735 0.41177,-0.09882 1.84952,-0.40635 3.19501,-0.683411 1.34548,-0.277061 2.49196,-0.554682 2.54773,-0.616932 0.62407,-0.696675 3.04165,-4.804775 3.04165,-5.168561 0,-0.541561 2.02318,-0.631214 5.66189,-0.250893 l 2.19525,0.229447 0,1.377696 c 0,1.139596 0.12344,1.377693 0.71428,1.377693 0.39286,0 0.71429,0.235082 0.71429,0.522407 0,0.287325 1.00446,1.199289 2.23214,2.026589 1.22768,0.8273 3.30234,2.335768 4.61035,3.352154 2.28336,1.774278 2.4877,1.856257 5.12402,2.055643 4.0893,0.309271 6.19887,1.454696 7.90975,4.294725 0.73316,1.217021 2.28038,3.498482 3.43827,5.069906 l 2.10526,2.85715 -0.2038,2.57105 c -0.15643,1.9734 -0.50951,3.18889 -1.51892,5.22888 l -1.31513,2.65783 1.33839,1.82325 c 1.57275,2.14251 2.75971,2.58478 8.77967,3.27134 9.90337,1.12947 16.03928,2.07589 17.34062,2.67468 0.77516,0.35667 3.04823,1.58454 5.05128,2.72859 2.97199,1.69747 3.94099,2.08009 5.26786,2.08009 1.61069,0 1.62595,0.0114 1.62595,1.21301 0,0.92541 0.27974,1.45861 1.17989,2.24895 0.64894,0.56977 1.86597,2.3141 2.70451,3.87628 0.83855,1.56218 2.07035,3.40438 2.73734,4.09377 0.66699,0.68939 1.39157,1.76652 1.61018,2.39363 l 0.39748,1.14019 4.88173,-0.0722 c 2.68495,-0.0397 6.97102,0.12924 9.52459,0.37544 2.55357,0.2462 7.69643,0.52607 11.42857,0.62195 3.73214,0.0959 9.33682,0.35875 12.45484,0.58418 l 5.66912,0.40987 3.08088,1.69764 c 3.83914,2.11545 8.9396,3.61396 16.25571,4.77592 3.11113,0.49411 5.92419,1.13105 6.36788,1.44182 0.43713,0.30618 1.1589,0.55669 1.60391,0.55669 0.44502,0 3.66372,-1.14186 7.15268,-2.53747 3.48895,-1.39561 8.18772,-3.09803 10.4417,-3.78314 3.86708,-1.17543 4.37049,-1.24329 8.92857,-1.20345 4.34265,0.038 13.19071,-0.8612 16.08042,-1.63412 0.49108,-0.13134 2.5,-1.32081 4.46429,-2.64326 1.96429,-1.32244 5.02253,-3.22389 6.7961,-4.22544 1.77357,-1.00155 3.92903,-2.53869 4.78991,-3.41587 1.7497,-1.78281 1.82958,-1.34208 -0.82753,-4.56602 -1.23868,-1.50291 -1.3696,-1.84453 -1.19778,-3.12553 0.13544,-1.00978 0.70832,-2.07592 1.92324,-3.57918 0.95169,-1.17754 1.89106,-2.13977 2.08749,-2.13827 0.19643,10e-4 2.58036,0.64375 5.29763,1.42723 2.71726,0.78349 5.33103,1.42452 5.80837,1.42452 1.29112,0 8.51587,-3.34241 10.50708,-4.86093 1.67731,-1.27913 1.81958,-1.31912 4.42265,-1.24311 2.46499,0.072 2.93866,-0.0382 5.67198,-1.31905 2.35079,-1.10163 3.07636,-1.62446 3.42615,-2.46892 0.24403,-0.58923 1.55632,-2.06743 2.9161,-3.2849 2.21904,-1.98675 2.70179,-2.25337 4.71122,-2.60199 1.23135,-0.21362 2.65003,-0.67733 3.15268,-1.03044 1.52467,-1.07118 6.83003,-1.88637 10.33614,-1.58817 3.54303,0.30133 9.25482,0.23699 9.87132,-0.1112 0.31293,-0.17673 0.17232,-0.88029 -0.52561,-2.62979 -0.92146,-2.309853 -1.10918,-2.513424 -5.69993,-6.181871 -4.24539,-3.392471 -4.95189,-3.826692 -6.68496,-4.108757 -2.77511,-0.45166 -4.33657,-0.108432 -6.86457,1.508918 l -2.22518,1.423611 -2.38125,-0.920257 -2.38121,-0.920261 -2.91572,0.731282 -2.91568,0.731279 -1.83178,-1.138693 -1.83177,-1.138693 2.95791,-5.763311 c 2.34282,-4.564868 5.48968,-10.167628 6.10289,-10.865793 0.0495,-0.05636 1.58993,0.22489 3.42322,0.625 5.00296,1.091922 7.27464,0.988072 10.03335,-0.458667 1.244,-0.652383 3.7614,-1.721411 5.59422,-2.37562 l 3.33239,-1.189472 -0.11811,-1.658164 c -0.11003,-1.544805 0.0977,-2.011107 3.0384,-6.82081 2.76564,-4.523407 3.45946,-5.399231 5.60357,-7.073365 2.81621,-2.198918 3.60325,-3.773114 3.24071,-6.482137 l -0.21507,-1.607143 -2.18625,-0.292942 c -1.78118,-0.238664 -2.25564,-0.445263 -2.56082,-1.115033 -0.34571,-0.758768 -0.17111,-0.964147 2.26686,-2.66632 2.49978,-1.745368 2.93382,-1.909142 8.0965,-3.055152 4.93525,-1.095521 6.20393,-1.233867 13.31228,-1.451685 l 7.85715,-0.240762 3.66789,1.464518 c 2.8565,1.140548 4.13878,1.464519 5.79664,1.464519 1.82254,0 2.40982,0.179796 4.08279,1.25 1.07475,0.6875 2.15232,1.25 2.39464,1.25 0.70264,0 2.06039,1.457068 1.85543,1.991178 -0.10268,0.267613 0.76296,1.656755 1.92368,3.086981 1.16075,1.430227 2.64407,3.645055 3.29632,4.921841 0.65225,1.276785 1.47689,2.808314 1.83257,3.403395 0.43893,0.734377 0.53997,1.250685 0.31454,1.607143 -0.50379,0.796579 -0.40743,1.201749 0.17153,0.72126 0.42857,-0.355663 0.5545,-0.198722 0.75318,0.938413 0.13118,0.751027 0.86389,2.523111 1.62822,3.937966 0.76435,1.414855 1.38971,2.895807 1.38971,3.291006 0,0.395198 0.33671,0.898749 0.74825,1.119001 0.62107,0.332373 0.70882,0.610846 0.51614,1.637883 -0.21039,1.12138 -0.0595,1.436674 1.6085,3.362108 1.61304,1.861953 2.0019,2.126 3.14457,2.135325 0.71718,0.0059 3.7649,0.373125 6.77265,0.816157 l 5.46871,0.805514 3.51872,2.5767 c 2.56785,1.880397 3.81646,2.5767 4.62057,2.5767 1.0805,0 1.10189,0.03386 1.10189,1.741986 0,1.112732 0.1935,1.902586 0.53571,2.186586 0.3144,0.260935 0.53572,1.040607 0.53572,1.887353 0,0.889179 0.33786,2.019257 0.88053,2.945286 0.8689,1.482625 0.923,1.510782 4.08368,2.1247 1.76175,0.342189 3.8164,0.547203 4.5659,0.455593 3.21532,-0.393004 6.72832,-1.427557 9.38735,-2.764497 1.56882,-0.788782 3.3154,-1.43415 3.88129,-1.43415 0.56593,0 2.76182,-0.642857 4.87982,-1.428571 2.99368,-1.110568 4.33654,-1.424475 6.03261,-1.410168 l 2.18168,0.01839 -1.28011,0.5319 c -0.82043,0.340907 -1.48582,0.963314 -1.853,1.733346 -0.52729,1.105679 -0.52593,1.348525 0.0171,3.046518 l 0.59004,1.845068 -2.05475,1.802346 c -2.40725,2.111547 -3.21175,3.53665 -4.02165,7.123944 -0.73332,3.24811 -1.70903,5.21415 -4.81842,9.70886 -1.3345,1.92904 -2.52365,3.95024 -2.64254,4.49154 l -0.21614,0.98418 -4.36025,-0.643 c -2.39815,-0.35365 -4.79722,-0.64716 -5.33125,-0.65225 -0.55693,-0.005 -2.0305,0.67613 -3.4554,1.59789 -1.36642,0.88393 -2.72032,1.60714 -3.00864,1.60714 -0.97796,0 -0.949,1.09197 0.13464,5.07737 1.28597,4.72955 1.21804,7.47662 -0.28614,11.56921 l -0.93332,2.53944 -2.41336,0.77727 -2.41332,0.77727 0.37529,1.07652 c 0.65164,1.86931 -0.0229,1.59293 -0.82525,-0.33822 -0.82379,-1.9822 -1.41472,-2.3363 -3.55493,-2.13017 -1.09854,0.1058 -1.24104,0.26057 -1.68125,1.82591 -0.42343,1.50567 -0.69572,1.82616 -2.27586,2.67857 -0.98718,0.53254 -2.75382,1.57382 -3.92586,2.31395 -1.80885,1.14228 -2.53925,1.38022 -4.83175,1.574 l -2.70078,0.2283 0.23361,2.57794 c 0.26896,2.96806 0.22292,3.01018 -3.3015,3.01919 -1.5285,0.004 -2.35947,-0.24857 -4.19325,-1.27408 -1.25786,-0.70343 -2.36893,-1.41156 -2.46911,-1.57362 -0.42332,-0.68493 -1.78586,0.26338 -4.50347,3.13435 -1.5906,1.68037 -3.06128,3.42672 -3.26817,3.88079 -0.25172,0.5525 -0.80108,0.90172 -1.66079,1.0558 -2.21575,0.39709 -7.84668,3.97876 -11.28468,7.17782 -3.01186,2.80254 -3.30425,2.98573 -4.64286,2.90874 -2.52985,-0.1455 -6.25,0.4418 -6.25,0.98669 0,0.28368 -0.3656,0.4941 -0.85857,0.4941 -1.19811,0 -6.98918,3.06238 -8.07,4.26749 -1.03511,1.15414 -2.85736,2.16108 -3.91082,2.16108 -0.48807,0 -0.73204,0.23246 -0.73204,0.6975 0,0.50178 -0.37578,0.80187 -1.33928,1.06944 -2.91886,0.8106 -2.98557,0.25859 -0.15657,-1.2949 1.90096,-1.04386 2.07003,-1.23774 2.10332,-2.41214 0.0346,-1.21946 -0.0275,-1.28721 -1.37554,-1.50278 -1.17239,-0.18747 -1.39346,-0.35222 -1.30396,-0.97178 0.0592,-0.41031 0.45786,-0.91986 0.88578,-1.13232 0.5439,-0.27003 0.685,-0.5369 0.46883,-0.88668 -0.22161,-0.35857 0.11439,-0.85896 1.18557,-1.76551 1.7131,-1.44985 3.14457,-2.92368 4.38743,-4.51734 0.81653,-1.047 0.83603,-1.17911 0.34685,-2.34986 -0.28507,-0.68227 -0.79357,-1.46877 -1.12996,-1.74777 -0.33643,-0.27901 -0.82975,-1.02897 -1.09629,-1.6666 -0.52043,-1.24501 -1.09064,-1.35638 -1.83571,-0.35854 -0.52404,0.7018 -1.56311,0.8062 -2.58436,0.25966 -1.07861,-0.57725 -2.97661,0.43433 -5.36346,2.85852 -1.16668,1.18493 -2.1214,2.27388 -2.12161,2.4199 -1.8e-4,0.14602 -1.29254,1.06906 -2.87182,2.0512 -3.88629,2.4168 -7.406,5.42972 -8.24011,7.05358 -0.37836,0.7366 -0.75403,1.33928 -0.83486,1.33928 -0.0808,0 -1.41703,0.46829 -2.96935,1.04065 l -2.8224,1.04066 -1.508,-0.67514 -1.50796,-0.67514 -1.42911,0.94574 c -1.45203,0.9609 -3.17314,3.4203 -3.17314,4.53427 0,0.33691 0.40179,1.20385 0.89286,1.92653 0.49107,0.72267 0.89285,1.66101 0.89285,2.08519 0,0.51529 0.28322,0.84232 0.85343,0.98543 0.55386,0.13901 1.03829,0.67767 1.38004,1.5345 0.51711,1.29648 0.53443,1.30572 0.95921,0.51197 0.36793,-0.68748 0.62886,-0.77633 1.74497,-0.59424 0.72178,0.11776 1.808,0.0684 2.41382,-0.1098 1.47068,-0.43249 2.29139,0.0674 2.29139,1.3957 0,0.57952 0.17486,1.05368 0.38854,1.05368 0.57835,0 -1.5e-4,2.96882 -0.65182,3.34505 -0.443,0.25575 -0.35836,0.46263 0.48875,1.19434 2.95939,2.55632 4.694,2.57668 7.68185,0.0901 1.17136,-0.97482 2.2905,-1.7724 2.48693,-1.7724 0.19647,0 0.524,-0.47848 0.72786,-1.0633 0.30053,-0.86209 0.72675,-1.17554 2.25253,-1.6565 l 1.88186,-0.5932 4.24675,1.80923 c 3.57429,1.52274 4.44468,1.76651 5.49675,1.53945 0.79229,-0.171 1.75686,-0.0961 2.63418,0.20441 0.76132,0.26081 1.82386,0.4742 2.36121,0.4742 0.87004,0 0.95786,0.10752 0.8024,0.98214 -0.096,0.54018 -0.50354,1.34375 -0.90557,1.78572 -0.42183,0.46367 -0.54829,0.80357 -0.29904,0.80357 0.32218,0 0.33421,0.18265 0.0473,0.71882 -0.31057,0.58034 -0.51943,0.64672 -1.084,0.34458 -0.38461,-0.20583 -0.69929,-0.63457 -0.69929,-0.95275 0,-0.52838 -0.0566,-0.52722 -0.654,0.0134 -0.35967,0.32552 -0.7351,0.51072 -0.83425,0.41157 -0.0991,-0.0992 -1.07707,0.12827 -2.17317,0.50539 -1.09611,0.37711 -2.07029,0.60829 -2.16486,0.51371 -0.0946,-0.0946 -1.30939,0.40088 -2.69964,1.10098 -1.39022,0.70011 -2.79243,1.27292 -3.11604,1.27292 -0.45071,0 -0.49561,0.11176 -0.19193,0.47765 0.30304,0.36516 0.18718,0.6742 -0.492,1.31226 -0.48861,0.45903 -0.88839,1.05164 -0.88839,1.3169 0,0.72367 -1.82157,1.32217 -2.58443,0.84915 -0.83614,-0.51843 -1.96182,-0.4862 -2.16179,0.0619 -0.0896,0.24554 0.16879,0.81087 0.57415,1.2563 l 0.737,0.80988 -1.57111,1.60084 c -0.86411,0.88046 -1.74561,1.60084 -1.95886,1.60084 -0.64882,0 -4.07582,4.36032 -4.68907,5.96617 -0.69236,1.81284 -0.46421,2.60526 0.75004,2.60526 0.49725,0 0.90407,0.20241 0.90407,0.4498 0,0.24739 0.32143,0.65054 0.71428,0.89589 0.39286,0.24534 0.71429,0.68074 0.71429,0.96755 0,0.2994 0.21221,0.44005 0.49829,0.33027 0.27403,-0.10516 1.13,-0.0211 1.9021,0.18681 1.82107,0.49036 3.49207,2.52831 3.83979,4.68298 0.14146,0.87661 0.54525,1.83491 0.89728,2.12955 0.65768,0.55045 3.02,7.04909 3.37768,9.29192 0.1689,1.05908 0.50847,1.44051 2.16404,2.43074 1.49446,0.89387 1.96368,1.37612 1.96368,2.01815 0,1.30939 0.3715,1.97348 1.104,1.97348 0.84571,0 2.69468,1.7063 2.99928,2.76786 0.31025,1.08132 -0.42507,1.05303 -2.63264,-0.10129 -1.3595,-0.71086 -2.03136,-0.85675 -3.13375,-0.68047 -1.23321,0.19721 -1.54657,0.0905 -2.58639,-0.88085 -1.33954,-1.25131 -2.77322,-1.43444 -4.15286,-0.53047 -1.00368,0.65763 -0.84089,1.40448 0.18625,0.85476 1.23575,-0.66135 2.41461,-0.41228 3.18775,0.6735 0.404,0.56738 1.53996,1.54842 2.52432,2.18008 0.98436,0.63167 1.78975,1.30193 1.78975,1.48947 0,0.18755 0.14111,0.2538 0.31354,0.14722 0.419,-0.25895 3.60225,2.56809 3.9551,3.5125 0.8664,2.31887 0.86022,2.3534 -0.42221,2.3534 -0.84089,0 -2.22171,0.62827 -4.59879,2.09239 -1.86839,1.15082 -4.23132,2.3062 -5.25092,2.56752 -1.99525,0.51137 -2.529,1.02976 -0.79879,0.77582 0.89739,-0.13171 1.08993,-0.0157 1.28871,0.77614 0.29336,1.16887 1.16254,1.20492 3.88961,0.16134 l 2.01122,-0.76965 1.14553,1.10466 c 0.63007,0.60757 1.91479,1.43283 2.85493,1.83393 1.66986,0.71242 1.69675,0.74849 1.16389,1.56171 -0.3,0.45785 -1.17285,1.18508 -1.93968,1.61605 -2.02153,1.13617 -2.17092,1.85152 -0.38664,1.85152 1.02179,0 1.41736,-0.14951 1.41736,-0.53571 0,-0.29464 0.24107,-0.53572 0.53571,-0.53572 0.56965,0 0.61354,0.35784 0.21804,1.77769 -0.21707,0.77936 -0.41764,0.87247 -1.68254,0.78114 -1.23064,-0.0889 -1.49353,0.0224 -1.83753,0.77731 -0.33557,0.73652 -0.28807,0.98356 0.2896,1.50636 0.9254,0.83748 0.89368,2.4358 -0.0609,3.06962 -0.72703,0.48274 -0.73389,0.55984 -0.20718,2.33351 l 0.54472,1.83427 -1.03022,0.42673 c -0.85985,0.35617 -1.1251,0.33184 -1.60403,-0.14709 -0.84525,-0.84524 -1.13182,-0.72639 -2.1545,0.89359 -0.84118,1.33253 -1.03036,1.44805 -2.05804,1.25669 l -1.13171,-0.21072 0.84889,0.71226 0.84893,0.71227 -0.93822,1.35381 c -0.516,0.7446 -0.93817,1.72799 -0.93817,2.18532 0,0.45733 -0.3324,1.36932 -0.73865,2.02665 -0.71553,1.15777 -0.76578,1.17735 -1.60714,0.62608 -0.92364,-0.6052 -1.21925,-0.30215 -0.35757,0.36657 0.44011,0.34155 0.42775,0.54914 -0.0893,1.49756 -1.51168,2.77308 -1.99482,3.27906 -2.83432,2.96851 -0.44089,-0.1631 -0.80171,-0.42225 -0.80186,-0.5759 -1.4e-4,-0.15365 -0.40085,-0.30248 -0.8905,-0.33073 -0.48964,-0.0283 -0.80146,0.0923 -0.69296,0.26786 0.10854,0.17557 0.0329,0.31922 -0.16836,0.31922 -0.2011,0 -0.54057,0.32681 -0.75432,0.72625 -0.34018,0.6356 -0.25261,0.77369 0.70172,1.10636 1.13882,0.397 1.47857,1.02453 0.55467,1.02453 -0.76071,0 -0.6636,0.62071 0.16661,1.06502 0.66289,0.35478 0.62782,0.44559 -0.625,1.61809 l -1.32732,1.24222 0.84546,0.65975 c 0.99079,0.77317 0.81447,1.98408 -0.43707,3.00158 -0.51585,0.4194 -0.63564,0.71058 -0.36725,0.89285 0.56593,0.38432 0.98493,1.87763 0.52686,1.87763 -0.20511,0 -0.63586,-0.40122 -0.95718,-0.8916 l -0.58418,-0.8916 -0.84643,0.80232 c -0.93567,0.8869 -1.08264,1.68559 -0.43021,2.33802 0.33332,0.33334 0.23014,0.42858 -0.46429,0.42858 -0.49107,0 -1.08571,-0.19286 -1.32142,-0.42858 -0.47333,-0.47333 -0.53015,-0.32535 -0.57586,1.5 -0.0271,1.0768 -0.2165,1.34051 -1.36804,1.90321 -1.12778,0.55109 -1.28132,0.75679 -0.98214,1.3158 0.19504,0.36444 0.35461,0.83389 0.35461,1.04323 0,0.56496 -0.9174,0.46083 -1.43504,-0.16289 -0.39839,-0.48004 -0.51014,-0.45919 -0.95686,0.17857 -0.55882,0.79787 -1.3996,0.95472 -1.61728,0.30171 -0.0778,-0.23353 -0.33564,-0.29954 -0.58,-0.14852 -0.24357,0.15054 -0.34297,0.57721 -0.22272,0.95609 0.15218,0.47945 0.0463,0.68423 -0.35382,0.68423 -0.76175,0 -1.09225,0.95205 -0.55518,1.5992 0.3515,0.4235 0.11308,0.88054 -1.29932,2.49094 -1.78985,2.04075 -2.07107,2.22765 -2.44407,1.62415 -0.27411,-0.44353 -0.89286,-0.46971 -0.89286,-0.0378 0,0.78919 -2.12003,2.5383 -3.08971,2.54913 -0.55957,0.006 -1.26814,0.20714 -1.57461,0.44642 -2.49578,1.94882 -2.53053,1.99201 -2.15982,2.68467 0.50382,0.94143 -0.87789,2.19291 -3.94025,3.56882 -2.34863,1.05526 -2.37819,1.05884 -3.06571,0.37132 -0.68751,-0.68751 -0.70488,-0.68422 -1.80211,0.34074 -1.07837,1.00735 -1.12555,1.01731 -1.76929,0.37357 -0.64375,-0.64374 -0.70658,-0.63271 -2.35663,0.41372 -2.01129,1.27552 -2.26273,1.3078 -2.57299,0.33027 l -0.2364,-0.74483 -0.85909,0.80708 c -0.47251,0.4439 -0.8594,0.97996 -0.85977,1.19125 -3.6e-4,0.22947 -1.037,0.42355 -2.57408,0.48195 l -2.5734,0.0978 -1.91067,-2.06205 c -1.72343,-1.85997 -1.89603,-1.96581 -1.76117,-1.07992 0.0822,0.54018 -0.006,0.98214 -0.19632,0.98214 -0.1902,0 -0.23685,0.28125 -0.10367,0.625 0.93269,2.40728 0.76099,4.73215 -0.34949,4.73215 -0.27797,0 -0.67742,0.32143 -0.88767,0.71428 -0.56967,1.06444 -1.3093,0.86425 -1.56697,-0.4241 -0.29688,-1.48444 -0.91765,-0.91162 -1.18681,1.09515 -0.1861,1.38743 -0.26505,1.47181 -1.37714,1.47181 -0.64885,0 -1.5783,0.15154 -2.06545,0.33675 -0.6721,0.25553 -0.93341,0.21246 -1.08347,-0.17857 -0.30906,-0.80539 -0.89807,-0.60603 -1.14767,0.38844 -0.15296,0.60943 -0.41688,0.85287 -0.81037,0.74748 -2.15377,-0.57682 -2.52727,-0.58463 -2.32154,-0.0485 0.114,0.29708 0.0876,0.82138 -0.0587,1.16513 -0.22804,0.53594 -0.29933,0.49803 -0.50029,-0.26598 -0.36397,-1.38373 -1.31622,-1.32004 -1.79141,0.11982 -0.34013,1.03061 -0.62341,1.27152 -1.7306,1.47177 -0.72814,0.13169 -1.91967,0.23302 -2.64786,0.22517 -0.72818,-0.008 -1.4207,0.14225 -1.53894,0.33355 -0.11822,0.1913 -0.54865,0.34782 -0.9565,0.34782 -0.40785,0 -1.1139,0.40178 -1.56901,0.89285 -1.07413,1.15901 -1.42482,1.12569 -1.87949,-0.17857 -0.20543,-0.58928 -0.4773,-1.07143 -0.60417,-1.07143 -0.36185,0 0.22671,3.69229 0.67713,4.24795 0.33322,0.41108 0.24861,0.44874 -0.48505,0.21589 -0.48878,-0.15514 -1.06524,-0.52351 -1.28102,-0.81861 -0.33248,-0.4547 -0.42531,-0.41048 -0.60845,0.28986 -0.14306,0.54705 0.0478,1.19703 0.56454,1.92275 0.42936,0.60297 0.7309,1.39002 0.67009,1.74897 -0.0608,0.35896 0.15494,1.05787 0.47945,1.55312 0.55082,0.84067 0.54889,0.94591 -0.0291,1.58456 -0.62876,0.69478 -0.84424,0.73814 -2.11552,0.42565 l -8e-5,0 z"
             style="fill:url(#linearGradient4342);fill-opacity:1;stroke-width:0.038;stroke-miterlimit:10;stroke-dasharray:none" />
          <path
             transform="translate(31.943168,64.083564)"
             inkscape:connector-curvature="0"
             id="path14814"
             d="m -325.58552,373.85546 -2.85714,-1.14113 -0.26458,-3.1666 -0.26457,-3.16661 1.3886,-1.50645 c 0.76373,-0.82855 1.82825,-2.17081 2.3656,-2.9828 0.85664,-1.29447 1.1421,-1.47635 2.31704,-1.47635 1.03768,0 1.47294,-0.20283 1.92902,-0.8989 0.49338,-0.75299 0.70607,-0.83624 1.31032,-0.51285 0.82077,0.43926 6.16359,0.10581 7.23704,-0.45168 0.51673,-0.26835 0.88766,-0.12661 1.69643,0.64823 1.10798,1.06152 1.32689,2.14053 0.56462,2.78297 -0.25877,0.21808 -1.26323,2.13846 -2.23215,4.26751 -1.67821,3.68762 -1.89907,3.98792 -4.66242,6.33929 -3.45452,2.93948 -4.09736,3.03486 -8.52781,1.26537 z"
             style="fill:url(#linearGradient4344);fill-opacity:1;stroke-width:0.038;stroke-miterlimit:10;stroke-dasharray:none" />
          <path
             transform="translate(31.943168,64.083564)"
             inkscape:connector-curvature="0"
             id="path14816"
             d="m -228.57939,337.32121 c -1.75672,-2.38067 -3.97042,-7.75668 -3.97042,-9.64223 0,-0.42376 0.48825,-2.27158 1.08499,-4.10626 1.49666,-4.60145 4.70698,-9.86081 7.73411,-12.6705 l 2.36148,-2.19187 1.53045,0.52147 c 0.84174,0.28681 1.69477,0.71949 1.89563,0.9615 0.25659,0.30917 -0.061,1.92106 -1.06788,5.4204 -0.78819,2.7392 -1.9326,6.9893 -2.54315,9.44465 -0.72512,2.91614 -1.45461,4.97157 -2.10358,5.92711 -0.57915,0.85275 -1.36167,2.91278 -1.87631,4.9395 -0.48555,1.91217 -0.96404,3.55789 -1.06331,3.65715 -0.0993,0.0993 -0.99117,-0.91814 -1.98201,-2.26092 z"
             style="fill:url(#linearGradient4346);fill-opacity:1;stroke-width:0.038;stroke-miterlimit:10;stroke-dasharray:none" />
        </g>
        <g
           id="g9462"
           transform="matrix(0.23339367,0,0,0.23339367,-209.47716,-530.25755)">
          <path
             id="path5248-5-8-3-9-8-2"
             d="m 2438.1748,2734.0234 c -307.9411,0 -557.6169,167.6015 -557.6169,374.3792 0,206.7778 249.6758,374.433 557.6169,374.433 307.9411,0 557.5632,-167.6552 557.5632,-374.433 0,-206.7777 -249.6221,-374.3792 -557.5632,-374.3792 z m 94.4148,118.2873 c 233.6031,0 422.9844,114.6465 422.9844,256.0919 0,141.4456 -189.3813,256.1457 -422.9844,256.1457 -233.6032,0 -422.9845,-114.7001 -422.9845,-256.1457 0,-141.4454 189.3813,-256.0919 422.9845,-256.0919 z"
             style="fill:url(#radialGradient9460);fill-opacity:1;fill-rule:nonzero;stroke:none"
             inkscape:connector-curvature="0" />
          <text
             transform="scale(1.0296648,0.97118985)"
             sodipodi:linespacing="125%"
             id="text2985-1-6-0-4-1-7-9"
             y="3647.8506"
             x="2189.7856"
             style="font-style:normal;font-weight:normal;font-size:72.4506073px;line-height:125%;font-family:Sans;letter-spacing:0px;word-spacing:0px;fill:url(#linearGradient9457);fill-opacity:1;stroke:#739eeb;stroke-width:14.59815979;stroke-miterlimit:4;stroke-dasharray:none;stroke-opacity:1"
             xml:space="preserve"><tspan
               style="font-style:normal;font-variant:normal;font-weight:900;font-stretch:normal;font-size:905.63269043px;font-family:Frutiger;-inkscape-font-specification:'Frutiger Heavy';fill:url(#linearGradient9457);fill-opacity:1;stroke:#739eeb;stroke-width:14.59815979;stroke-miterlimit:4;stroke-dasharray:none;stroke-opacity:1"
               y="3647.8506"
               x="2189.7856"
               id="tspan2987-1-1-2-6-3-61-4"
               sodipodi:role="line">R</tspan></text>
        </g>
      </g>
      <g
         id="g4360">
        <g
           id="g4354">
          <text
             sodipodi:linespacing="0%"
             id="text4328"
             y="-387.10425"
             x="-482.09186"
             style="font-style:normal;font-variant:normal;font-weight:300;font-stretch:normal;font-size:17.82853889px;line-height:0%;font-family:'Hiragino Sans GB';-inkscape-font-specification:'Hiragino Sans GB Light';letter-spacing:0px;word-spacing:0px;fill:#000000;fill-opacity:1;stroke:none;stroke-width:1px;stroke-linecap:butt;stroke-linejoin:miter;stroke-opacity:1"
             xml:space="preserve"><tspan
               style="font-style:normal;font-variant:normal;font-weight:600;font-stretch:normal;font-size:128.36547852px;font-family:'Hiragino Sans GB';-inkscape-font-specification:'Hiragino Sans GB Semi-Bold'"
               y="-387.10425"
               x="-482.09186"
               id="tspan4330"
               sodipodi:role="line"
               dx="0 0 0 0 0 0">   </tspan></text>
          <text
             sodipodi:linespacing="0%"
             id="text4348"
             y="-381.75677"
             x="-206.87505"
             style="font-style:normal;font-weight:normal;font-size:17.82853889px;line-height:0%;font-family:sans-serif;letter-spacing:0px;word-spacing:0px;fill:#0392cf;fill-opacity:1;stroke:none;stroke-width:1px;stroke-linecap:butt;stroke-linejoin:miter;stroke-opacity:1"
             xml:space="preserve"><tspan
               style="font-style:italic;font-variant:normal;font-weight:900;font-stretch:normal;font-size:160.45684814px;font-family:Lato;-inkscape-font-specification:'Lato Heavy Italic';fill:#0392cf;fill-opacity:1"
               y="-381.75677"
               x="-206.87505"
               id="tspan4350"
               sodipodi:role="line">R</tspan></text>
        </g>
        <text
           xml:space="preserve"
           style="font-style:normal;font-weight:normal;font-size:25px;line-height:0%;font-family:sans-serif;letter-spacing:0px;word-spacing:0px;fill:#000000;fill-opacity:1;stroke:none;stroke-width:1px;stroke-linecap:butt;stroke-linejoin:miter;stroke-opacity:1"
           x="-469.0722"
           y="-311.52176"
           id="text4374"
           sodipodi:linespacing="0%"><tspan
             sodipodi:role="line"
             id="tspan4376"
             x="-469.0722"
             y="-311.52176"
             style="font-size:63.75px;letter-spacing:5px">The China-R Conference</tspan></text>
      </g>
    </g>
  </g>
</svg>
